<?xml version="1.0" encoding="utf-8"?>
<!-- Generator: Adobe Illustrator 19.1.0, SVG Export Plug-In . SVG Version: 6.00 Build 0)  -->
<!DOCTYPE svg PUBLIC "-//W3C//DTD SVG 1.1//EN" "http://www.w3.org/Graphics/SVG/1.1/DTD/svg11.dtd">
<svg version="1.1" id="Layer_1" xmlns:sketch="http://www.bohemiancoding.com/sketch/ns"
	 xmlns="http://www.w3.org/2000/svg" xmlns:xlink="http://www.w3.org/1999/xlink" x="0px" y="0px" viewBox="1310 -548 2720 1196"
	 style="enable-background:new 1310 -548 2720 1196;" xml:space="preserve">
<style type="text/css">
	.st0{fill:#252120;stroke:#383333;stroke-width:1.5;stroke-miterlimit:10;}
</style>
<path id="Shape" class="st0" d="M1224.8-519.4l105.3,106.7l-87.6,46.6L1224.8-519.4L1224.8-519.4z"/>
<path id="Shape_1_" class="st0" d="M1224.8-519.4l130.1-34.4l-24.8,141.1L1224.8-519.4L1224.8-519.4z"/>
<path id="Shape_2_" class="st0" d="M1224.8-519.4l-38.1-168.9l168.2,134.5L1224.8-519.4L1224.8-519.4z"/>
<path id="Shape_3_" class="st0" d="M1196.1-168.6l138.8,47.5l-86.3,49.8L1196.1-168.6z"/>
<path id="Shape_4_" class="st0" d="M1196.1-168.6l31-134.3l107.8,181.7L1196.1-168.6L1196.1-168.6z"/>
<path id="Shape_7_" class="st0" d="M1465.4-477l-43.1,110.4l-92.2-46.1L1465.4-477L1465.4-477z"/>
<path id="Shape_8_" class="st0" d="M1465.4-477l181.8,34.6l-225,75.9L1465.4-477L1465.4-477z"/>
<path id="Shape_9_" class="st0" d="M1465.4-477l44.8-154.5l137,189L1465.4-477L1465.4-477z"/>
<path id="Shape_10_" class="st0" d="M1465.4-477l-110.6-76.8l155.4-77.7L1465.4-477L1465.4-477z"/>
<path id="Shape_11_" class="st0" d="M1465.4-477l-135.4,64.3l24.8-141.1L1465.4-477L1465.4-477z"/>
<path id="Shape_12_" class="st0" d="M1359.8-265.7l-25,144.5L1227.1-303L1359.8-265.7L1359.8-265.7z"/>
<path id="Shape_13_" class="st0" d="M1359.8-265.7l105.5,79.3l-130.5,65.2L1359.8-265.7L1359.8-265.7z"/>
<path id="Shape_14_" class="st0" d="M1359.8-265.7l62.5-100.8l43,180.1L1359.8-265.7L1359.8-265.7z"/>
<path id="Shape_15_" class="st0" d="M1359.8-265.7l-29.8-146.9l92.2,46.1L1359.8-265.7L1359.8-265.7z"/>
<path id="Shape_16_" class="st0" d="M1359.8-265.7L1242.4-366l87.6-46.6L1359.8-265.7L1359.8-265.7z"/>
<path id="Shape_17_" class="st0" d="M1359.8-265.7l-132.7-37.2l15.4-63.1L1359.8-265.7L1359.8-265.7z"/>
<path id="Shape_18_" class="st0" d="M1465.4-54.5l38.1-123.1l4,156.9L1465.4-54.5L1465.4-54.5z"/>
<path id="Shape_19_" class="st0" d="M1465.4-54.5l-0.2-132l38.3,8.9L1465.4-54.5L1465.4-54.5z"/>
<path id="Shape_20_" class="st0" d="M1465.4-54.5l-130.6-66.7l130.5-65.2L1465.4-54.5L1465.4-54.5z"/>
<path id="Shape_21_" class="st0" d="M1465.4-54.5l-217-16.9l86.3-49.8L1465.4-54.5L1465.4-54.5z"/>
<path id="Shape_22_" class="st0" d="M1671.1-626l-23.8,183.5l-137-189L1671.1-626L1671.1-626z"/>
<path id="Shape_23_" class="st0" d="M1671.1-626l3.8,196.3l-27.6-12.8L1671.1-626L1671.1-626z"/>
<path id="Shape_24_" class="st0" d="M1671.1-626l30.7,187.8l-26.9,8.4L1671.1-626L1671.1-626z"/>
<path id="Shape_25_" class="st0" d="M1671.1-626l112,69.4l-81.3,118.4L1671.1-626L1671.1-626z"/>
<path id="Shape_27_" class="st0" d="M1523.6-304.8l-58.3,118.4l-43-180.1L1523.6-304.8L1523.6-304.8z"/>
<path id="Shape_28_" class="st0" d="M1523.6-304.8l-20,127.3l-38.3-8.9L1523.6-304.8L1523.6-304.8z"/>
<path id="Shape_29_" class="st0" d="M1523.6-304.8l117.7,97.2l-137.7,30L1523.6-304.8L1523.6-304.8z"/>
<path id="Shape_30_" class="st0" d="M1523.6-304.8l151.2-125l-33.6,222.2L1523.6-304.8L1523.6-304.8z"/>
<path id="Shape_31_" class="st0" d="M1523.6-304.8l123.7-137.7l27.6,12.8L1523.6-304.8L1523.6-304.8z"/>
<path id="Shape_32_" class="st0" d="M1523.6-304.8l-101.2-61.7l225-75.9L1523.6-304.8L1523.6-304.8z"/>
<path id="Shape_33_" class="st0" d="M1574.8-70.1l-67.1,49.5l-4-156.9L1574.8-70.1L1574.8-70.1z"/>
<path id="Shape_34_" class="st0" d="M1574.8-70.1l159-39.2l-92.5,76L1574.8-70.1L1574.8-70.1z"/>
<path id="Shape_35_" class="st0" d="M1574.8-70.1l66.5-137.3l92.5,98.2L1574.8-70.1L1574.8-70.1z"/>
<path id="Shape_36_" class="st0" d="M1574.8-70.1l-71.2-107.4l137.7-30L1574.8-70.1L1574.8-70.1z"/>
<path id="Shape_39_" class="st0" d="M1888.1-477l-39.1,112.5l-147.2-73.6L1888.1-477L1888.1-477z"/>
<path id="Shape_40_" class="st0" d="M1888.1-477l73.7,76.3l-112.7,36.2L1888.1-477L1888.1-477z"/>
<path id="Shape_41_" class="st0" d="M1888.1-477l7.1-135.6l66.7,212L1888.1-477L1888.1-477z"/>
<path id="Shape_42_" class="st0" d="M1888.1-477l-105-79.5l112.1-56.1L1888.1-477L1888.1-477z"/>
<path id="Shape_43_" class="st0" d="M1888.1-477l-186.3,38.9l81.3-118.5L1888.1-477L1888.1-477z"/>
<path id="Shape_44_" class="st0" d="M1782.4-265.7l-48.7,156.4l-92.5-98.3L1782.4-265.7L1782.4-265.7z"/>
<path id="Shape_45_" class="st0" d="M1782.4-265.7l99.8,82.2l-148.5,74.2L1782.4-265.7L1782.4-265.7z"/>
<path id="Shape_46_" class="st0" d="M1782.4-265.7l66.6-98.8l33.2,180.9L1782.4-265.7L1782.4-265.7z"/>
<path id="Shape_47_" class="st0" d="M1782.4-265.7l-80.7-172.5l147.2,73.6L1782.4-265.7L1782.4-265.7z"/>
<path id="Shape_48_" class="st0" d="M1782.4-265.7l-107.6-164l26.9-8.3L1782.4-265.7L1782.4-265.7z"/>
<path id="Shape_49_" class="st0" d="M1782.4-265.7l-141.2,58.1l33.6-222.1L1782.4-265.7L1782.4-265.7z"/>
<path id="Shape_50_" class="st0" d="M1818.3-61.7l85-116.7l-13.4,163.6L1818.3-61.7L1818.3-61.7z"/>
<path id="Shape_51_" class="st0" d="M1818.3-61.7l63.9-121.8l21.1,5.1L1818.3-61.7L1818.3-61.7z"/>
<path id="Shape_52_" class="st0" d="M1818.3-61.7l-84.5-47.6l148.5-74.2L1818.3-61.7L1818.3-61.7z"/>
<path id="Shape_53_" class="st0" d="M1818.3-61.7l-177,28.4l92.5-75.9L1818.3-61.7L1818.3-61.7z"/>
<path id="Shape_54_" class="st0" d="M1978.7-505.5l-16.8,104.8l-66.6-211.8L1978.7-505.5L1978.7-505.5z"/>
<path id="Shape_55_" class="st0" d="M1978.7-505.5l108.8,124l-125.6-19.3L1978.7-505.5L1978.7-505.5z"/>
<path id="Shape_56_" class="st0" d="M1978.7-505.5l160.9,74.9l-52,49.2L1978.7-505.5L1978.7-505.5z"/>
<path id="Shape_57_" class="st0" d="M1978.7-505.5l169.2-22.2l-8.3,97L1978.7-505.5L1978.7-505.5z"/>
<path id="Shape_58_" class="st0" d="M1978.7-505.5l79.2-133.5l90,111.3L1978.7-505.5L1978.7-505.5z"/>
<path id="Shape_59_" class="st0" d="M1978.7-505.5l-79.2-111.6l158.4-21.9L1978.7-505.5L1978.7-505.5z"/>
<path id="Shape_60_" class="st0" d="M1978.7-505.5l-83.4-107.1l4.1-4.4L1978.7-505.5L1978.7-505.5z"/>
<path id="Shape_61_" class="st0" d="M1946.3-295.8l-64.1,112.3l-33.2-180.9L1946.3-295.8L1946.3-295.8z"/>
<path id="Shape_62_" class="st0" d="M1946.3-295.8l-43,117.4l-21.1-5.1L1946.3-295.8L1946.3-295.8z"/>
<path id="Shape_63_" class="st0" d="M1946.3-295.8l127,35.4l-169.9,81.9L1946.3-295.8L1946.3-295.8z"/>
<path id="Shape_64_" class="st0" d="M1946.3-295.8l141.1-85.6l-14.1,121L1946.3-295.8L1946.3-295.8z"/>
<path id="Shape_65_" class="st0" d="M1946.3-295.8l15.4-104.9l125.6,19.3L1946.3-295.8L1946.3-295.8z"/>
<path id="Shape_66_" class="st0" d="M1946.3-295.8l-97.3-68.7l112.7-36.2L1946.3-295.8L1946.3-295.8z"/>
<path id="Shape_67_" class="st0" d="M2021.9-139l-132,124.1l13.4-163.6L2021.9-139L2021.9-139z"/>
<path id="Shape_68_" class="st0" d="M2021.9-139l150.4,21.7l-75.2,64.7L2021.9-139L2021.9-139z"/>
<path id="Shape_69_" class="st0" d="M2021.9-139l51.4-121.4l99,143.1L2021.9-139L2021.9-139z"/>
<path id="Shape_70_" class="st0" d="M2021.9-139l-118.6-39.5l169.9-81.9L2021.9-139L2021.9-139z"/>
<path id="Shape_71_" class="st0" d="M2205.1-688.3l-57.2,160.8l-90-111.5L2205.1-688.3L2205.1-688.3z"/>
<path id="Shape_72_" class="st0" d="M2205.1-688.3l98.7,82.7l-156,78L2205.1-688.3L2205.1-688.3z"/>
<path id="Shape_73_" class="st0" d="M2310.6-477l-71.7,96.2l-99.6-49.8L2310.6-477L2310.6-477z"/>
<path id="Shape_74_" class="st0" d="M2310.6-477l67.9,18.1l-139.6,78.1L2310.6-477L2310.6-477z"/>
<path id="Shape_75_" class="st0" d="M2310.6-477l56.8-130.4l11.1,148.5L2310.6-477L2310.6-477z"/>
<path id="Shape_76_" class="st0" d="M2310.6-477l-6.9-128.6l63.8-1.9L2310.6-477L2310.6-477z"/>
<path id="Shape_77_" class="st0" d="M2310.6-477l-162.8-50.6l156-78L2310.6-477L2310.6-477z"/>
<path id="Shape_78_" class="st0" d="M2310.6-477l-171.3,46.4l8.3-97L2310.6-477L2310.6-477z"/>
<path id="Shape_79_" class="st0" d="M2205.1-265.7l-32.7,148.4l-99-143.1L2205.1-265.7L2205.1-265.7z"/>
<path id="Shape_80_" class="st0" d="M2205.1-265.7l76.8,93.6l-109.5,54.7L2205.1-265.7L2205.1-265.7z"/>
<path id="Shape_81_" class="st0" d="M2205.1-265.7l117.3-13.4l-40.5,107L2205.1-265.7L2205.1-265.7z"/>
<path id="Shape_82_" class="st0" d="M2205.1-265.7l34-115.1l83.4,101.6L2205.1-265.7L2205.1-265.7z"/>
<path id="Shape_83_" class="st0" d="M2205.1-265.7l-65.6-164.9l99.6,49.8L2205.1-265.7L2205.1-265.7z"/>
<path id="Shape_84_" class="st0" d="M2205.1-265.7l-117.7-115.8l52-49.2L2205.1-265.7L2205.1-265.7z"/>
<path id="Shape_85_" class="st0" d="M2205.1-265.7l-131.7,5.3l14.1-121L2205.1-265.7L2205.1-265.7z"/>
<path id="Shape_86_" class="st0" d="M2310.6-54.5l83.6-16.9l-74.2,72.8L2310.6-54.5z"/>
<path id="Shape_87_" class="st0" d="M2310.6-54.5l-28.8-117.6l112.4,100.7L2310.6-54.5z"/>
<path id="Shape_88_" class="st0" d="M2310.6-54.5l-138.3-62.9l109.5-54.7L2310.6-54.5L2310.6-54.5z"/>
<path id="Shape_89_" class="st0" d="M2310.6-54.5l-213.5,1.8l75.2-64.7L2310.6-54.5L2310.6-54.5z"/>
<path id="Shape_90_" class="st0" d="M2443.1-486.9l-64.5,28l-11.1-148.5L2443.1-486.9L2443.1-486.9z"/>
<path id="Shape_91_" class="st0" d="M2443.1-486.9l59.5,137.9l-124-110L2443.1-486.9L2443.1-486.9z"/>
<path id="Shape_92_" class="st0" d="M2443.1-486.9l142.9,68.3l-83.4,69.6L2443.1-486.9L2443.1-486.9z"/>
<path id="Shape_93_" class="st0" d="M2443.1-486.9l147-50.6l-4.1,118.9L2443.1-486.9L2443.1-486.9z M2443.1-486.9l14.8-171.6
	l132.2,121.1L2443.1-486.9L2443.1-486.9z"/>
<path id="Shape_94_" class="st0" d="M2443.1-486.9l-75.5-120.5l90.4-51.1L2443.1-486.9L2443.1-486.9z"/>
<path id="Shape_95_" class="st0" d="M2358.4-391.6l-36.1,112.4l-83.4-101.6L2358.4-391.6L2358.4-391.6z"/>
<path id="Shape_96_" class="st0" d="M2358.4-391.6l127.9,77.2l-164,35.2L2358.4-391.6L2358.4-391.6z"/>
<path id="Shape_97_" class="st0" d="M2358.4-391.6l144.1,42.6l-16.2,34.6L2358.4-391.6L2358.4-391.6z"/>
<path id="Shape_98_" class="st0" d="M2358.4-391.6l20.1-67.3l124,110L2358.4-391.6L2358.4-391.6z"/>
<path id="Shape_99_" class="st0" d="M2358.4-391.6l-119.5,10.8l139.6-78.1L2358.4-391.6L2358.4-391.6z"/>
<path id="Shape_100_" class="st0" d="M2401.4-191.5l-7.1,120.1l-112.5-100.7L2401.4-191.5L2401.4-191.5z"/>
<path id="Shape_101_" class="st0" d="M2401.4-191.5l93.4,4.9L2394.4-71.3L2401.4-191.5L2401.4-191.5z"/>
<path id="Shape_102_" class="st0" d="M2401.4-191.5l84.9-122.9l8.5,127.8L2401.4-191.5L2401.4-191.5z"/>
<path id="Shape_103_" class="st0" d="M2401.4-191.5l-79.1-87.7l164-35.2L2401.4-191.5L2401.4-191.5z"/>
<path id="Shape_104_" class="st0" d="M2401.4-191.5l-119.6,19.4l40.5-107.1L2401.4-191.5L2401.4-191.5z"/>
<path id="Shape_105_" class="st0" d="M2627.6-688.3l-37.6,150.8l-132.2-121L2627.6-688.3L2627.6-688.3z"/>
<path id="Shape_106_" class="st0" d="M2627.6-688.3l12.7,125.7l-50.3,25.2L2627.6-688.3L2627.6-688.3z"/>
<path id="Shape_107_" class="st0" d="M2733.2-477l-93,85.6l-54.3-27.1L2733.2-477L2733.2-477z"/>
<path id="Shape_108_" class="st0" d="M2733.2-477l-147.3,58.4l4.1-118.9L2733.2-477L2733.2-477z"/>
<path id="Shape_109_" class="st0" d="M2627.6-265.7l-132.8,79.1l-8.5-127.8L2627.6-265.7L2627.6-265.7z"/>
<path id="Shape_110_" class="st0" d="M2627.6-265.7l-51.4,134.6l-81.4-55.5L2627.6-265.7L2627.6-265.7z"/>
<path id="Shape_111_" class="st0" d="M2627.6-265.7l-125.1-83.2l83.4-69.6L2627.6-265.7L2627.6-265.7z"/>
<path id="Shape_112_" class="st0" d="M2627.6-265.7l-141.3-48.6l16.2-34.6L2627.6-265.7L2627.6-265.7z"/>
<path id="Shape_113_" class="st0" d="M2576.1-131.1l-181.9,59.7l100.6-115.2L2576.1-131.1L2576.1-131.1z"/>
<path id="Shape_114_" class="st0" d="M2394.4-71.3l181.9-59.7l-97.1,88.4L2394.4-71.3z"/>
<path id="Shape_115_" class="st0" d="M2772.9-131.1l17.8-153.3l-93.9,66.2L2772.9-131.1L2772.9-131.1z"/>
<path id="Shape_116_" class="st0" d="M2772.9-131.1l105.3-106.7l-87.6-46.6L2772.9-131.1L2772.9-131.1z"/>
<path id="Shape_117_" class="st0" d="M2772.9-131.1l130.2,34.4l-24.8-141.1L2772.9-131.1L2772.9-131.1z"/>
<path id="Shape_118_" class="st0" d="M2772.9-131.1l-38,168.9l168.2-134.5L2772.9-131.1L2772.9-131.1z"/>
<path id="Shape_119_" class="st0" d="M2772.9-131.1l-136.8,52.3l98.8,116.6L2772.9-131.1L2772.9-131.1z"/>
<path id="Shape_120_" class="st0" d="M2696.8-218.2l-69.1-47.4l8.4,187L2696.8-218.2L2696.8-218.2z"/>
<path id="Shape_121_" class="st0" d="M2627.6-265.7l147.6-81.8l-135-44L2627.6-265.7L2627.6-265.7z"/>
<path id="Shape_122_" class="st0" d="M2627.6-265.7l163-18.7l-15.4-63.1L2627.6-265.7L2627.6-265.7z"/>
<path id="Shape_123_" class="st0" d="M2627.6-265.7l69.1,47.4l93.9-66.2L2627.6-265.7L2627.6-265.7z"/>
<path id="Shape_124_" class="st0" d="M2627.6-265.7l12.7-125.7l-54.3-27.1L2627.6-265.7L2627.6-265.7z M2875.2-647l7.8,117.7
	L2733.2-477L2875.2-647L2875.2-647z"/>
<path id="Shape_125_" class="st0" d="M2733.2-477l42,129.5l107.7-181.8L2733.2-477L2733.2-477z"/>
<path id="Shape_126_" class="st0" d="M2733.2-477l-93,85.6l135,44L2733.2-477L2733.2-477z"/>
<path id="Shape_127_" class="st0" d="M2907.9,37.8l-5-134.5L2734.9,37.8H2907.9L2907.9,37.8z"/>
<path id="Shape_128_" class="st0" d="M2907.9,37.8L3058.4-19l-155.4-77.7L2907.9,37.8L2907.9,37.8z"/>
<path id="Shape_129_" class="st0" d="M2907.9,37.8l160.5,18.3L3058.4-19L2907.9,37.8L2907.9,37.8z"/>
<path id="Shape_130_" class="st0" d="M3013.8-173.5L2970.6-284l-92.2,46.1L3013.8-173.5L3013.8-173.5z"/>
<path id="Shape_131_" class="st0" d="M3013.8-173.5l181.8-34.6l-225-75.9L3013.8-173.5L3013.8-173.5z"/>
<path id="Shape_132_" class="st0" d="M3013.8-173.5L3058.6-19l137-189L3013.8-173.5L3013.8-173.5z"/>
<path id="Shape_133_" class="st0" d="M3013.8-173.5l-110.6,76.8L3058.6-19L3013.8-173.5L3013.8-173.5z"/>
<path id="Shape_134_" class="st0" d="M3013.8-173.5l-135.4-64.3l24.8,141.1L3013.8-173.5L3013.8-173.5z"/>
<path id="Shape_135_" class="st0" d="M2907.9-384.7l-25-144.5l-107.8,181.8L2907.9-384.7L2907.9-384.7z"/>
<path id="Shape_136_" class="st0" d="M2907.9-384.7l105.5-79.3l-130.5-65.2L2907.9-384.7L2907.9-384.7z"/>
<path id="Shape_137_" class="st0" d="M2907.9-384.7l62.5,100.8l43-180.1L2907.9-384.7L2907.9-384.7z"/>
<path id="Shape_138_" class="st0" d="M2907.9-384.7l-29.8,146.9l92.2-46.1L2907.9-384.7L2907.9-384.7z"/>
<path id="Shape_139_" class="st0" d="M2907.9-384.7l-117.4,100.3l87.6,46.6L2907.9-384.7L2907.9-384.7z"/>
<path id="Shape_140_" class="st0" d="M2907.9-384.7l-132.7,37.2l15.4,63.1L2907.9-384.7L2907.9-384.7z"/>
<path id="Shape_141_" class="st0" d="M3013.8-596l38.1,123.1l-9.1-227.6L3013.8-596L3013.8-596z"/>
<path id="Shape_142_" class="st0" d="M3013.8-596l-0.2,132l38.3-8.9L3013.8-596L3013.8-596z"/>
<path id="Shape_143_" class="st0" d="M3013.8-596l-130.7,66.8l130.5,65.2L3013.8-596L3013.8-596z"/>
<path id="Shape_144_" class="st0" d="M3013.8-596l-138.4-50.9l7.8,117.7L3013.8-596L3013.8-596z"/>
<path id="Shape_145_" class="st0" d="M3219.2-24.5L3195.4-208l-137,189L3219.2-24.5L3219.2-24.5z"/>
<path id="Shape_146_" class="st0" d="M3219.2-24.5l3.8-196.2l-27.6,12.7L3219.2-24.5L3219.2-24.5z"/>
<path id="Shape_147_" class="st0" d="M3219.2-24.5l30.7-187.8l-26.9-8.3L3219.2-24.5L3219.2-24.5z"/>
<path id="Shape_148_" class="st0" d="M3219.2-24.5l112-69.4l-81.3-118.5L3219.2-24.5L3219.2-24.5z"/>
<path id="Shape_149_" class="st0" d="M3219.2-24.5l37.9,78.6l74.1-148L3219.2-24.5L3219.2-24.5z"/>
<path id="Shape_150_" class="st0" d="M3219.2-24.5l-142.3,87.4l180.2-8.8L3219.2-24.5L3219.2-24.5z"/>
<path id="Shape_151_" class="st0" d="M3219.2-24.5l-150.7,80.7l8.4,6.8L3219.2-24.5L3219.2-24.5z"/>
<path id="Shape_152_" class="st0" d="M3219.2-24.5L3058.6-19l10.1,75.2L3219.2-24.5L3219.2-24.5z"/>
<path id="Shape_153_" class="st0" d="M3071.8-345.6L3013.4-464l-43,180.1L3071.8-345.6L3071.8-345.6z"/>
<path id="Shape_154_" class="st0" d="M3071.8-345.6l-20-127.3l-38.3,8.9L3071.8-345.6L3071.8-345.6z"/>
<path id="Shape_155_" class="st0" d="M3071.8-345.6l117.7-97.3l-137.7-30L3071.8-345.6L3071.8-345.6z"/>
<path id="Shape_156_" class="st0" d="M3071.8-345.6l151.2,125l-33.6-222.2L3071.8-345.6L3071.8-345.6z"/>
<path id="Shape_157_" class="st0" d="M3071.8-345.6L3195.4-208l27.6-12.7L3071.8-345.6L3071.8-345.6z"/>
<path id="Shape_158_" class="st0" d="M3071.8-345.6l-101.3,61.7l225,75.9L3071.8-345.6L3071.8-345.6z"/>
<path id="Shape_159_" class="st0" d="M3122.9-580.4l-80.3-120.2l9.1,227.6L3122.9-580.4L3122.9-580.4z"/>
<path id="Shape_160_" class="st0" d="M3122.9-580.4l159,39.2l-9.1-181.7L3122.9-580.4L3122.9-580.4z"/>
<path id="Shape_161_" class="st0" d="M3122.9-580.4l66.5,137.4l92.5-98.2L3122.9-580.4L3122.9-580.4z"/>
<path id="Shape_162_" class="st0" d="M3122.9-580.4L3051.8-473l137.7,30L3122.9-580.4L3122.9-580.4z"/>
<path id="Shape_163_" class="st0" d="M3323.6,56.2l7.6-150.1l-74.1,148L3323.6,56.2L3323.6,56.2z"/>
<path id="Shape_164_" class="st0" d="M3323.6,56.2l119.8-94l-112.1-56.1L3323.6,56.2L3323.6,56.2z"/>
<path id="Shape_165_" class="st0" d="M3443.2-37.8l0.9,20.4l-120.6,73.6L3443.2-37.8z"/>
<path id="Shape_166_" class="st0" d="M3444.2-17.5l-69.6,175.1l-51-101.5L3444.2-17.5z"/>
<path id="Shape_167_" class="st0" d="M3323.6,56.2l-66.4-2l117.5,103.5L3323.6,56.2L3323.6,56.2z"/>
<path id="Shape_168_" class="st0" d="M3436.2-173.5L3397.1-286l-147.3,73.6L3436.2-173.5L3436.2-173.5z"/>
<path id="Shape_169_" class="st0" d="M3436.2-173.5l73.7-76.3L3397.2-286L3436.2-173.5L3436.2-173.5z"/>
<path id="Shape_170_" class="st0" d="M3436.2-173.5l7.1,135.6l66.6-211.9L3436.2-173.5L3436.2-173.5z"/>
<path id="Shape_171_" class="st0" d="M3436.2-173.5l-105,79.5l112.1,56.1L3436.2-173.5L3436.2-173.5z"/>
<path id="Shape_172_" class="st0" d="M3436.2-173.5l-186.4-38.9L3331.1-94L3436.2-173.5L3436.2-173.5z"/>
<path id="Shape_173_" class="st0" d="M3330.6-384.7L3281.9-541l-92.5,98.2L3330.6-384.7L3330.6-384.7z"/>
<path id="Shape_174_" class="st0" d="M3330.6-384.7l99.8-82.2L3281.9-541L3330.6-384.7L3330.6-384.7z"/>
<path id="Shape_175_" class="st0" d="M3330.6-384.7l66.6,98.8l33.2-180.9L3330.6-384.7L3330.6-384.7z"/>
<path id="Shape_176_" class="st0" d="M3330.6-384.7l-80.7,172.4l147.2-73.6L3330.6-384.7L3330.6-384.7z"/>
<path id="Shape_177_" class="st0" d="M3330.6-384.7l-107.6,164.1l26.9,8.3L3330.6-384.7L3330.6-384.7z"/>
<path id="Shape_178_" class="st0" d="M3330.6-384.7l-141.2-58.2l33.6,222.2L3330.6-384.7L3330.6-384.7z"/>
<path id="Shape_179_" class="st0" d="M3436.2-596l15.3,124l55.7-165.4L3436.2-596L3436.2-596z"/>
<path id="Shape_180_" class="st0" d="M3436.2-596l-5.8,129.1l21.1-5.1L3436.2-596L3436.2-596z"/>
<path id="Shape_181_" class="st0" d="M3436.2-596l-154.4,55l148.5,74.2L3436.2-596L3436.2-596z"/>
<path id="Shape_182_" class="st0" d="M3281.9-541l-9.1-181.7l163.4,126.8L3281.9-541L3281.9-541z"/>
<path id="Shape_183_" class="st0" d="M3453.6,47.4l-9.4-64.8l-69.6,175L3453.6,47.4L3453.6,47.4z"/>
<path id="Shape_184_" class="st0" d="M3453.6,47.4l152.4-58.8l-161.8-5.9L3453.6,47.4L3453.6,47.4z"/>
<path id="Shape_185_" class="st0" d="M3453.6,47.4l110.6,56.2l41.8-115.1L3453.6,47.4L3453.6,47.4z"/>
<path id="Shape_186_" class="st0" d="M3526.8-145l-16.8-104.8l-66.6,211.9L3526.8-145L3526.8-145z"/>
<path id="Shape_187_" class="st0" d="M3526.8-145l108.8-124l-125.6,19.2L3526.8-145L3526.8-145z"/>
<path id="Shape_188_" class="st0" d="M3526.8-145l160.9-74.9l-52-49.2L3526.8-145L3526.8-145z"/>
<path id="Shape_189_" class="st0" d="M3526.8-145l169.2,22.2l-8.3-97L3526.8-145L3526.8-145z"/>
<path id="Shape_190_" class="st0" d="M3526.8-145l79.3,133.5l89.9-111.3L3526.8-145L3526.8-145z"/>
<path id="Shape_191_" class="st0" d="M3526.8-145l-82.5,127.6l161.8,5.9L3526.8-145L3526.8-145z"/>
<path id="Shape_192_" class="st0" d="M3526.8-145l-83.4,107.2l0.8,20.4L3526.8-145L3526.8-145z"/>
<path id="Shape_193_" class="st0" d="M3494.4-354.6l-64.1-112.3L3397.2-286L3494.4-354.6L3494.4-354.6z"/>
<path id="Shape_194_" class="st0" d="M3494.4-354.6l-43-117.4l-21.1,5.1L3494.4-354.6L3494.4-354.6z"/>
<path id="Shape_195_" class="st0" d="M3494.4-354.6l127-35.4l-169.9-81.9L3494.4-354.6L3494.4-354.6z"/>
<path id="Shape_196_" class="st0" d="M3494.4-354.6l141.1,85.6l-14.1-121L3494.4-354.6L3494.4-354.6z"/>
<path id="Shape_197_" class="st0" d="M3494.4-354.6l15.4,104.9l125.6-19.3L3494.4-354.6L3494.4-354.6z"/>
<path id="Shape_198_" class="st0" d="M3494.4-354.6l-97.3,68.7l112.7,36.2L3494.4-354.6L3494.4-354.6z"/>
<path id="Shape_199_" class="st0" d="M3570.1-511.5l-62.9-125.9L3451.4-472L3570.1-511.5L3570.1-511.5z"/>
<path id="Shape_200_" class="st0" d="M3570.1-511.5l150.4-21.7l-85-61.6L3570.1-511.5L3570.1-511.5z"/>
<path id="Shape_201_" class="st0" d="M3570.1-511.5l51.4,121.4l99-143.1L3570.1-511.5L3570.1-511.5z"/>
<path id="Shape_202_" class="st0" d="M3570.1-511.5L3451.4-472l169.9,81.9L3570.1-511.5L3570.1-511.5z"/>
<path id="Shape_203_" class="st0" d="M3753.2,37.8l-57.3-160.7l-89.9,111.3L3753.2,37.8L3753.2,37.8z"/>
<path id="Shape_204_" class="st0" d="M3753.2,37.8l98.7-82.7l-156-78L3753.2,37.8L3753.2,37.8z"/>
<path id="Shape_205_" class="st0" d="M3753.2,37.8l68.6,50.9L3852-44.8L3753.2,37.8L3753.2,37.8z"/>
<path id="Shape_206_" class="st0" d="M3753.2,37.8l-147.2-49.4l-41.8,115.1L3753.2,37.8L3753.2,37.8z"/>
<path id="Shape_207_" class="st0" d="M3858.8-173.5l-71.7-96.2l-99.6,49.8L3858.8-173.5L3858.8-173.5z"/>
<path id="Shape_208_" class="st0" d="M3858.8-173.5l67.9-18.1l-139.6-78.1L3858.8-173.5L3858.8-173.5z"/>
<path id="Shape_209_" class="st0" d="M3858.8-173.5l56.8,130.4l11.1-148.5L3858.8-173.5L3858.8-173.5z"/>
<path id="Shape_210_" class="st0" d="M3858.8-173.5l-6.9,128.6l63.8,1.9L3858.8-173.5L3858.8-173.5z"/>
<path id="Shape_211_" class="st0" d="M3858.8-173.5l-162.9,50.6l156,78L3858.8-173.5L3858.8-173.5z"/>
<path id="Shape_212_" class="st0" d="M3858.8-173.5l-171.3-46.4l8.3,97L3858.8-173.5L3858.8-173.5z"/>
<path id="Shape_213_" class="st0" d="M3753.2-384.7l-32.7-148.4l-99,143.1L3753.2-384.7L3753.2-384.7z"/>
<path id="Shape_214_" class="st0" d="M3753.2-384.7l76.8-93.6l-109.5-54.8L3753.2-384.7L3753.2-384.7z"/>
<path id="Shape_215_" class="st0" d="M3753.2-384.7l117.3,13.4l-40.5-107.1L3753.2-384.7L3753.2-384.7z"/>
<path id="Shape_216_" class="st0" d="M3753.2-384.7l34,115.1l83.4-101.6L3753.2-384.7L3753.2-384.7z"/>
<path id="Shape_217_" class="st0" d="M3753.2-384.7l-65.6,164.9l99.6-49.8L3753.2-384.7L3753.2-384.7z"/>
<path id="Shape_218_" class="st0" d="M3753.2-384.7L3635.6-269l52,49.2L3753.2-384.7L3753.2-384.7z"/>
<path id="Shape_219_" class="st0" d="M3753.2-384.7l-131.7-5.3l14.1,121L3753.2-384.7L3753.2-384.7z"/>
<path id="Shape_220_" class="st0" d="M3988.8-622.5l-158.7,144.1l28.8-117.7L3988.8-622.5z"/>
<path id="Shape_221_" class="st0" d="M3858.8-596l-138.3,62.9l109.5,54.8L3858.8-596L3858.8-596z"/>
<path id="Shape_222_" class="st0" d="M3858.8-596l-223.3,1.3l85,61.6L3858.8-596L3858.8-596z"/>
<path id="Shape_223_" class="st0" d="M3894.8,3.4l-42.9-48.2l-30.1,133.5L3894.8,3.4L3894.8,3.4z"/>
<path id="Shape_224_" class="st0" d="M3894.8,3.4l20.9-46.4l-63.8-1.9L3894.8,3.4L3894.8,3.4z"/>
<path id="Shape_225_" class="st0" d="M3894.8,3.4l111.3,4.7L3915.7-43L3894.8,3.4L3894.8,3.4z"/>
<path id="Shape_226_" class="st0" d="M3991.2-163.6l-64.5-28l-11.1,148.5L3991.2-163.6L3991.2-163.6z"/>
<path id="Shape_227_" class="st0" d="M3991.2-163.6l59.5-137.9l-124,110L3991.2-163.6L3991.2-163.6z"/>
<path id="Shape_228_" class="st0" d="M3991.2-163.6l142.9-68.3l-83.4-69.6L3991.2-163.6L3991.2-163.6z"/>
<path id="Shape_229_" class="st0" d="M4134.1-231.8l4,118.9l-147-50.6L4134.1-231.8z"/>
<path id="Shape_230_" class="st0" d="M4138.1-113L4006.1,8.1l-14.9-171.7L4138.1-113z"/>
<path id="Shape_231_" class="st0" d="M3991.2-163.6l-75.6,120.5L4006,8L3991.2-163.6L3991.2-163.6z"/>
<path id="Shape_232_" class="st0" d="M3906.8-258.8l-36.2-112.4l-83.4,101.6L3906.8-258.8L3906.8-258.8z"/>
<path id="Shape_233_" class="st0" d="M3906.8-258.8l127.9-77.2l-164-35.2L3906.8-258.8L3906.8-258.8z"/>
<path id="Shape_234_" class="st0" d="M3906.8-258.8l144.1-42.6l-16.2-34.6L3906.8-258.8L3906.8-258.8z"/>
<path id="Shape_235_" class="st0" d="M3906.8-258.8l20.1,67.3l124-110L3906.8-258.8L3906.8-258.8z"/>
<path id="Shape_236_" class="st0" d="M3906.8-258.8l-119.5-10.8l139.6,78.1L3906.8-258.8L3906.8-258.8z"/>
<path id="Shape_237_" class="st0" d="M3949.7-459l39.1-163.4l-158.7,144L3949.7-459L3949.7-459z"/>
<path id="Shape_238_" class="st0" d="M3949.7-459l155.8-93l-116.7-70.5L3949.7-459L3949.7-459z"/>
<path id="Shape_239_" class="st0" d="M3949.7-459l84.9,122.9l70.9-215.9L3949.7-459L3949.7-459z"/>
<path id="Shape_240_" class="st0" d="M3949.7-459l-79.1,87.7l164,35.2L3949.7-459L3949.7-459z"/>
<path id="Shape_241_" class="st0" d="M3949.7-459L3830-478.4l40.5,107.1L3949.7-459L3949.7-459z"/>
<path id="Shape_242_" class="st0" d="M4140.6-13.8l-2.5-99.1L4006.1,8.2L4140.6-13.8L4140.6-13.8z"/>
<path id="Shape_243_" class="st0" d="M4140.6-13.8L4006,8.2L4147.9,90L4140.6-13.8L4140.6-13.8z"/>
<path id="Shape_244_" class="st0" d="M4175.6-384.7l-70.4-167.2L4034.4-336L4175.6-384.7L4175.6-384.7z"/>
<path id="Shape_245_" class="st0" d="M4175.6-384.7l-141.3,48.6l16.2,34.6L4175.6-384.7L4175.6-384.7z"/>
<path id="Shape_246_" class="st0" d="M4076.1-651.5l-87.3,29.1l116.7,70.5L4076.1-651.5L4076.1-651.5z"/>
<path id="Shape_247_" class="st0" d="M2636.1-78.7l136.8-52.3l-76.2-87.2L2636.1-78.7L2636.1-78.7z"/>
<path id="Shape_248_" class="st0" d="M2719.9,422.4l-17.8-153.3l119.3,161.8L2719.9,422.4L2719.9,422.4z"/>
<path id="Shape_249_" class="st0" d="M2719.9,422.4l-105.3-106.7l87.6-46.6L2719.9,422.4L2719.9,422.4z"/>
<path id="Shape_250_" class="st0" d="M2719.9,422.4l-130.2,34.4l24.8-141.1L2719.9,422.4L2719.9,422.4z"/>
<path id="Shape_251_" class="st0" d="M2719.9,422.4l36.4,133.8l-166.5-99.4L2719.9,422.4L2719.9,422.4z"/>
<path id="Shape_252_" class="st0" d="M2719.9,422.4L2828.6,529l-72.3,27.2L2719.9,422.4L2719.9,422.4z"/>
<path id="Shape_253_" class="st0" d="M2719.9,422.4l101.6,8.5l7.1,98.1L2719.9,422.4L2719.9,422.4z"/>
<path id="Shape_254_" class="st0" d="M2803.2,292.8l-116.4-110.9l103.8,3.2L2803.2,292.8L2803.2,292.8z"/>
<path id="Shape_255_" class="st0" d="M2803.2,292.8l-101.1-23.7l-15.3-87.2L2803.2,292.8L2803.2,292.8z"/>
<path id="Shape_256_" class="st0" d="M2803.2,292.8l18.2,138.2l-119.3-161.8L2803.2,292.8L2803.2,292.8z"/>
<path id="Shape_257_" class="st0" d="M2676.2,74.2l-66.5-50l26.4-102.9L2676.2,74.2z"/>
<path id="Shape_258_" class="st0" d="M2676.2,74.2l10.6,107.6l-77.1-157.6L2676.2,74.2L2676.2,74.2z"/>
<path id="Shape_259_" class="st0" d="M2676.2,74.2l114.4,110.9l-103.8-3.2L2676.2,74.2L2676.2,74.2z"/>
<path id="Shape_260_" class="st0" d="M2676.2,74.2l105,16.3l9.5,94.6L2676.2,74.2z"/>
<path id="Shape_261_" class="st0" d="M2676.2,74.2l-40.1-152.9l98.8,116.6L2676.2,74.2z"/>
<path id="Shape_262_" class="st0" d="M2584.9,591.3l5-134.5l166.5,99.4L2584.9,591.3L2584.9,591.3z"/>
<path id="Shape_263_" class="st0" d="M2584.9,591.3l-150.4-56.8l155.4-77.7L2584.9,591.3L2584.9,591.3z"/>
<path id="Shape_264_" class="st0" d="M2584.9,591.3l-160.5-6.6l10.1-50.3L2584.9,591.3L2584.9,591.3z"/>
<path id="Shape_265_" class="st0" d="M2479.1,379.9l43.2-110.5l92.2,46.1L2479.1,379.9L2479.1,379.9z"/>
<path id="Shape_266_" class="st0" d="M2479.1,379.9l-181.8-34.6l225-75.9L2479.1,379.9L2479.1,379.9z"/>
<path id="Shape_267_" class="st0" d="M2479.1,379.9l-44.8,154.5l-137-189L2479.1,379.9L2479.1,379.9z"/>
<path id="Shape_268_" class="st0" d="M2479.1,379.9l110.6,76.8l-155.4,77.7L2479.1,379.9L2479.1,379.9z"/>
<path id="Shape_269_" class="st0" d="M2479.1,379.9l135.4-64.3l-24.8,141.1L2479.1,379.9L2479.1,379.9z"/>
<path id="Shape_270_" class="st0" d="M2584.9,168.8l25-144.5l77.1,157.6L2584.9,168.8L2584.9,168.8z"/>
<path id="Shape_271_" class="st0" d="M2584.9,168.8l-105.5-79.3l130.5-65.2L2584.9,168.8L2584.9,168.8z"/>
<path id="Shape_272_" class="st0" d="M2584.9,168.8l-62.5,100.8l-43-180.1L2584.9,168.8L2584.9,168.8z"/>
<path id="Shape_273_" class="st0" d="M2584.9,168.8l29.8,146.9l-92.2-46.1L2584.9,168.8L2584.9,168.8z"/>
<path id="Shape_274_" class="st0" d="M2584.9,168.8l117.4,100.3l-87.6,46.6L2584.9,168.8L2584.9,168.8z"/>
<path id="Shape_275_" class="st0" d="M2584.9,168.8l102.1,13.1l15.3,87.2L2584.9,168.8L2584.9,168.8z"/>
<path id="Shape_276_" class="st0" d="M2479.1-42.6l-38.1,123.1l-46.6-151.9L2479.1-42.6L2479.1-42.6z"/>
<path id="Shape_277_" class="st0" d="M2479.1-42.6l0.2,132l-38.3-8.9L2479.1-42.6L2479.1-42.6z"/>
<path id="Shape_278_" class="st0" d="M2479.1-42.6l130.6,66.7l-130.5,65.2L2479.1-42.6L2479.1-42.6z"/>
<path id="Shape_279_" class="st0" d="M2479.1-42.6l157-36.1l-26.2,102.9L2479.1-42.6L2479.1-42.6z"/>
<path id="Shape_280_" class="st0" d="M2273.6,528.9l23.8-183.5l137,189L2273.6,528.9L2273.6,528.9z"/>
<path id="Shape_281_" class="st0" d="M2273.6,528.9l-3.8-196.2l27.6,12.7L2273.6,528.9L2273.6,528.9z"/>
<path id="Shape_282_" class="st0" d="M2273.6,528.9l-30.8-187.7l26.9-8.3L2273.6,528.9L2273.6,528.9z"/>
<path id="Shape_283_" class="st0" d="M2273.6,528.9l-112-69.4l81.3-118.4L2273.6,528.9L2273.6,528.9z"/>
<path id="Shape_284_" class="st0" d="M2273.6,528.9l-38.2,62.4l-73.8-131.8L2273.6,528.9L2273.6,528.9z"/>
<path id="Shape_285_" class="st0" d="M2273.6,528.9l92.1,66.3l-130.3-3.9L2273.6,528.9L2273.6,528.9z"/>
<path id="Shape_286_" class="st0" d="M2273.6,528.9l150.7,55.8l-58.6,10.5L2273.6,528.9L2273.6,528.9z"/>
<path id="Shape_287_" class="st0" d="M2273.6,528.9l160.7,5.5l-10.1,50.3L2273.6,528.9L2273.6,528.9z"/>
<path id="Shape_288_" class="st0" d="M2420.9,207.8l58.3-118.4l43,180.1L2420.9,207.8L2420.9,207.8z"/>
<path id="Shape_289_" class="st0" d="M2420.9,207.8l20-127.3l38.3,8.9L2420.9,207.8L2420.9,207.8z"/>
<path id="Shape_290_" class="st0" d="M2420.9,207.8l-117.7-97.3l137.7-30L2420.9,207.8L2420.9,207.8z"/>
<path id="Shape_291_" class="st0" d="M2420.9,207.8l-151.2,125l33.6-222.2L2420.9,207.8L2420.9,207.8z"/>
<path id="Shape_292_" class="st0" d="M2420.9,207.8l-123.7,137.7l-27.5-12.7L2420.9,207.8L2420.9,207.8z"/>
<path id="Shape_293_" class="st0" d="M2420.9,207.8l101.3,61.7l-225,75.9L2420.9,207.8L2420.9,207.8z"/>
<path id="Shape_294_" class="st0" d="M2320.1,1.4l74.2-72.8l46.7,151.8L2320.1,1.4L2320.1,1.4z"/>
<path id="Shape_295_" class="st0" d="M2320.1,1.4l-109.2,11l99.9-66.7L2320.1,1.4L2320.1,1.4z"/>
<path id="Shape_296_" class="st0" d="M2320.1,1.4l-16.7,109.2l-92.5-98.2L2320.1,1.4L2320.1,1.4z"/>
<path id="Shape_297_" class="st0" d="M2320.1,1.4l120.9,79l-137.7,30L2320.1,1.4L2320.1,1.4z"/>
<path id="Shape_298_" class="st0" d="M2106.1,596.2l55.5-136.6l73.8,131.8L2106.1,596.2L2106.1,596.2z"/>
<path id="Shape_299_" class="st0" d="M2106.1,596.2l-62.3-91l117.8-45.6L2106.1,596.2L2106.1,596.2z"/>
<path id="Shape_300_" class="st0" d="M2106.1,596.2l-115.2-82.6l52.9-8.4L2106.1,596.2z"/>
<path id="Shape_301_" class="st0" d="M2106.1,596.2l-130,56.8l14.8-139.4L2106.1,596.2z"/>
<path id="Shape_302_" class="st0" d="M2056.4,379.9l39.1-112.5l147.2,73.6L2056.4,379.9L2056.4,379.9z"/>
<path id="Shape_303_" class="st0" d="M2056.4,379.9l-73.6-76.3l112.7-36.2L2056.4,379.9L2056.4,379.9z"/>
<path id="Shape_304_" class="st0" d="M2056.4,379.9l-12.8,125.2l-60.8-201.4L2056.4,379.9L2056.4,379.9z"/>
<path id="Shape_305_" class="st0" d="M2056.4,379.9l105,79.5L2043.7,505L2056.4,379.9L2056.4,379.9z"/>
<path id="Shape_306_" class="st0" d="M2056.4,379.9l186.3-38.9l-81.3,118.4L2056.4,379.9L2056.4,379.9z"/>
<path id="Shape_307_" class="st0" d="M2162.1,168.8l48.7-156.4l92.5,98.2L2162.1,168.8L2162.1,168.8z"/>
<path id="Shape_308_" class="st0" d="M2162.1,168.8l-99.8-82.2l148.5-74.2L2162.1,168.8L2162.1,168.8z"/>
<path id="Shape_309_" class="st0" d="M2162.1,168.8l-66.6,98.8l-33.2-180.9L2162.1,168.8L2162.1,168.8z"/>
<path id="Shape_310_" class="st0" d="M2162.1,168.8l80.7,172.4l-147.2-73.6L2162.1,168.8L2162.1,168.8z"/>
<path id="Shape_311_" class="st0" d="M2162.1,168.8l107.7,164.1l-26.9,8.3L2162.1,168.8L2162.1,168.8z"/>
<path id="Shape_312_" class="st0" d="M2162.1,168.8l141.2-58.2l-33.5,222.3L2162.1,168.8L2162.1,168.8z"/>
<path id="Shape_313_" class="st0" d="M1994.2-22.8l68.1,109.4l-21.1-5.1L1994.2-22.8L1994.2-22.8z"/>
<path id="Shape_314_" class="st0" d="M2097.1-52.6l113.7,65l-148.5,74.2L2097.1-52.6L2097.1-52.6z"/>
<path id="Shape_315_" class="st0" d="M1947.8,594.3l42.9-80.7L1976.1,653L1947.8,594.3L1947.8,594.3z"/>
<path id="Shape_316_" class="st0" d="M1947.8,594.3l-61.1-52.4l104-28.4L1947.8,594.3L1947.8,594.3z"/>
<path id="Shape_317_" class="st0" d="M1947.8,594.3l-72.1-3l11-49.4L1947.8,594.3L1947.8,594.3z"/>
<path id="Shape_318_" class="st0" d="M2781.2,90.4l126.8-52.6h-173.1L2781.2,90.4L2781.2,90.4z"/>
<path id="Shape_319_" class="st0" d="M1966.1,408.4l16.8-104.8l60.9,201.5L1966.1,408.4L1966.1,408.4z"/>
<path id="Shape_320_" class="st0" d="M1966.1,408.4l-108.8-124l125.6,19.2L1966.1,408.4L1966.1,408.4z"/>
<path id="Shape_321_" class="st0" d="M1966.1,408.4l-160.9-74.9l52-49.2L1966.1,408.4L1966.1,408.4z"/>
<path id="Shape_322_" class="st0" d="M1966.1,408.4l-169.2,22.2l8.3-97L1966.1,408.4L1966.1,408.4z"/>
<path id="Shape_323_" class="st0" d="M1966.1,408.4l-79.2,133.5l-90-111.3L1966.1,408.4L1966.1,408.4z"/>
<path id="Shape_324_" class="st0" d="M1966.1,408.4l24.7,105.1l-104,28.4L1966.1,408.4L1966.1,408.4z"/>
<path id="Shape_325_" class="st0" d="M1966.1,408.4l77.7,96.7l-52.9,8.4L1966.1,408.4L1966.1,408.4z"/>
<path id="Shape_326_" class="st0" d="M1998.2,198.8l64.1-112.3l33.2,180.9L1998.2,198.8L1998.2,198.8z"/>
<path id="Shape_327_" class="st0" d="M1998.2,198.8l43-117.4l21.1,5.1L1998.2,198.8L1998.2,198.8z"/>
<path id="Shape_328_" class="st0" d="M1998.2,198.8l-127-35.4l169.9-81.9L1998.2,198.8L1998.2,198.8z"/>
<path id="Shape_329_" class="st0" d="M1998.2,198.8l-141.1,85.6l14.1-121L1998.2,198.8L1998.2,198.8z"/>
<path id="Shape_330_" class="st0" d="M1998.2,198.8l-15.4,104.9l-125.6-19.3L1998.2,198.8L1998.2,198.8z"/>
<path id="Shape_331_" class="st0" d="M1998.2,198.8l97.3,68.7l-112.7,36.2L1998.2,198.8L1998.2,198.8z"/>
<path id="Shape_332_" class="st0" d="M1889.9-14.8l104.2-8l47,104.3L1889.9-14.8L1889.9-14.8z"/>
<path id="Shape_333_" class="st0" d="M1889.9-14.8l-117.7,35.1l46.1-82L1889.9-14.8L1889.9-14.8z"/>
<path id="Shape_334_" class="st0" d="M1922.7,41.9l-51.4,121.4l-99-143.1L1922.7,41.9L1922.7,41.9z"/>
<path id="Shape_335_" class="st0" d="M1922.7,41.9l118.6,39.5l-169.9,81.9L1922.7,41.9L1922.7,41.9z"/>
<path id="Shape_336_" class="st0" d="M1780.2,549.9l16.7-119.4l89.9,111.3L1780.2,549.9L1780.2,549.9z"/>
<path id="Shape_337_" class="st0" d="M1780.2,549.9l-139.3-41.3l156-78L1780.2,549.9L1780.2,549.9z"/>
<path id="Shape_338_" class="st0" d="M1780.2,549.9l-100.5,41.4l-38.8-82.6L1780.2,549.9L1780.2,549.9z"/>
<path id="Shape_339_" class="st0" d="M1780.2,549.9h136.2h-196.1H1780.2L1780.2,549.9z"/>
<path id="Shape_340_" class="st0" d="M1780.2,549.9l106.6-8l-11,49.4L1780.2,549.9L1780.2,549.9z"/>
<path id="Shape_341_" class="st0" d="M1633.9,379.9l71.7-96.2l99.6,49.8L1633.9,379.9L1633.9,379.9z"/>
<path id="Shape_342_" class="st0" d="M1633.9,379.9l-67.9-18.1l139.5-78.1L1633.9,379.9L1633.9,379.9z"/>
<path id="Shape_343_" class="st0" d="M1633.9,379.9l-56.8,130.4l-11.1-148.5L1633.9,379.9L1633.9,379.9z"/>
<path id="Shape_344_" class="st0" d="M1633.9,379.9l6.9,128.6l-63.8,1.9L1633.9,379.9L1633.9,379.9z"/>
<path id="Shape_345_" class="st0" d="M1633.9,379.9l162.9,50.6l-156,78L1633.9,379.9L1633.9,379.9z"/>
<path id="Shape_346_" class="st0" d="M1633.9,379.9l171.3-46.4l-8.3,97L1633.9,379.9L1633.9,379.9z"/>
<path id="Shape_347_" class="st0" d="M1739.6,168.8l32.7-148.4l99,143.1L1739.6,168.8L1739.6,168.8z"/>
<path id="Shape_348_" class="st0" d="M1739.6,168.8l-76.8-93.6l109.5-54.8L1739.6,168.8L1739.6,168.8z"/>
<path id="Shape_349_" class="st0" d="M1739.6,168.8l-117.3,13.4l40.5-107.1L1739.6,168.8L1739.6,168.8z"/>
<path id="Shape_350_" class="st0" d="M1739.6,168.8l-34,115.1l-83.4-101.6L1739.6,168.8L1739.6,168.8z"/>
<path id="Shape_351_" class="st0" d="M1739.6,168.8l65.6,164.9l-99.6-49.8L1739.6,168.8L1739.6,168.8z"/>
<path id="Shape_352_" class="st0" d="M1739.6,168.8l117.6,115.7l-52,49.2L1739.6,168.8L1739.6,168.8z"/>
<path id="Shape_353_" class="st0" d="M1739.6,168.8l131.7-5.3l-14.1,121L1739.6,168.8L1739.6,168.8z"/>
<path id="Shape_354_" class="st0" d="M1641.2-33.3l-133.6,12.8l67.1-49.5L1641.2-33.3z"/>
<path id="Shape_355_" class="st0" d="M1641.2-33.3l21.5,108.4l-155.1-95.6L1641.2-33.3z"/>
<path id="Shape_356_" class="st0" d="M1641.2-33.3l131,53.7l-109.5,54.8L1641.2-33.3L1641.2-33.3z"/>
<path id="Shape_357_" class="st0" d="M1641.2-33.3l177-28.4l-46.1,82L1641.2-33.3L1641.2-33.3z"/>
<path id="Shape_358_" class="st0" d="M1555.8,619.9l85-111.4l38.8,82.7L1555.8,619.9L1555.8,619.9z"/>
<path id="Shape_359_" class="st0" d="M1555.8,619.9l21.2-109.6l63.8-1.9L1555.8,619.9L1555.8,619.9z"/>
<path id="Shape_360_" class="st0" d="M1555.8,619.9l-69.2-58.4l90.4-51.1L1555.8,619.9L1555.8,619.9z"/>
<path id="Shape_361_" class="st0" d="M1501.6,389.8l64.5-28l11.1,148.5L1501.6,389.8L1501.6,389.8z"/>
<path id="Shape_362_" class="st0" d="M1501.6,389.8l-59.5-137.9l124,110L1501.6,389.8L1501.6,389.8z"/>
<path id="Shape_363_" class="st0" d="M1501.6,389.8l-143-68.3l83.4-69.6L1501.6,389.8L1501.6,389.8z"/>
<path id="Shape_364_" class="st0" d="M1501.6,389.8l-147,50.6l4-118.9L1501.6,389.8z"/>
<path id="Shape_365_" class="st0" d="M1501.6,389.8l-14.9,171.7l-132.1-121.1L1501.6,389.8z"/>
<path id="Shape_366_" class="st0" d="M1501.6,389.8l75.6,120.5l-90.4,51.1L1501.6,389.8L1501.6,389.8z"/>
<path id="Shape_367_" class="st0" d="M1586.1,294.6l36.1-112.4l83.4,101.6L1586.1,294.6L1586.1,294.6z"/>
<path id="Shape_368_" class="st0" d="M1586.1,294.6l-127.8-77.2l164-35.2L1586.1,294.6L1586.1,294.6z"/>
<path id="Shape_369_" class="st0" d="M1586.1,294.6l-144-42.6l16.2-34.6L1586.1,294.6L1586.1,294.6z"/>
<path id="Shape_370_" class="st0" d="M1586.1,294.6l-20.1,67.3l-124-110L1586.1,294.6L1586.1,294.6z"/>
<path id="Shape_371_" class="st0" d="M1586.1,294.6l119.5-10.8l-139.6,78.1L1586.1,294.6L1586.1,294.6z"/>
<path id="Shape_372_" class="st0" d="M1543.2,94.4l-35.5-115L1662.8,75L1543.2,94.4L1543.2,94.4z"/>
<path id="Shape_373_" class="st0" d="M1543.2,94.4l-155.8-93l120.3-22L1543.2,94.4L1543.2,94.4z"/>
<path id="Shape_374_" class="st0" d="M1543.2,94.4l-84.9,122.9L1387.3,1.4L1543.2,94.4L1543.2,94.4z"/>
<path id="Shape_375_" class="st0" d="M1543.2,94.4l79.1,87.7l-164,35.2L1543.2,94.4L1543.2,94.4z"/>
<path id="Shape_376_" class="st0" d="M1543.2,94.4L1662.8,75l-40.5,107.1L1543.2,94.4L1543.2,94.4z"/>
<path id="Shape_377_" class="st0" d="M1316.9,591.3l37.6-150.8l132.2,121.1L1316.9,591.3L1316.9,591.3z"/>
<path id="Shape_378_" class="st0" d="M1316.9,591.3l-68.4-134l106-16.9L1316.9,591.3L1316.9,591.3z"/>
<path id="Shape_380_" class="st0" d="M1316.9,591.3l98.6,21.9l-63.8,21.9L1316.9,591.3z"/>
<path id="Shape_381_" class="st0" d="M1316.9,591.3l169.7-29.7l-71.1,51.6L1316.9,591.3L1316.9,591.3z"/>
<path id="Shape_382_" class="st0" d="M1315.2,361.9l-42-130.6l85.4,90.2L1315.2,361.9L1315.2,361.9z"/>
<path id="Shape_383_" class="st0" d="M1315.2,361.9l39.3,78.5l-106,16.9L1315.2,361.9z"/>
<path id="Shape_384_" class="st0" d="M1315.2,361.9l43.4-40.3l-4.1,118.9L1315.2,361.9L1315.2,361.9z"/>
<path id="Shape_385_" class="st0" d="M1316.9,168.8l70.4-167.2l70.9,215.9L1316.9,168.8L1316.9,168.8z"/>
<path id="Shape_386_" class="st0" d="M1316.9,168.8l-64.4-116.7l134.8-50.5L1316.9,168.8L1316.9,168.8z"/>
<path id="Shape_388_" class="st0" d="M1316.9,168.8l41.6,152.9l-85.4-90.2L1316.9,168.8z"/>
<path id="Shape_389_" class="st0" d="M1316.9,168.8l125.1,83.2l-83.4,69.6L1316.9,168.8L1316.9,168.8z"/>
<path id="Shape_390_" class="st0" d="M1316.9,168.8l141.3,48.6l-16.2,34.6L1316.9,168.8L1316.9,168.8z"/>
<path id="Shape_391_" class="st0" d="M1465.4-54.5l42.1,33.8l-120.3,22L1465.4-54.5L1465.4-54.5z"/>
<path id="Shape_392_" class="st0" d="M1922.7,41.9l-150.4-21.7l117.7-35.1L1922.7,41.9z"/>
<path id="Shape_393_" class="st0" d="M1889.9-14.8l151.2,96.3L1922.6,42L1889.9-14.8z"/>
<path id="Shape_394_" class="st0" d="M2734.9,37.8l-58.6,36.3l105,16.3L2734.9,37.8L2734.9,37.8z"/>
<path id="Shape_395_" class="st0" d="M2021.9-139l-27.8,116.1l-104.2,8L2021.9-139z"/>
<path id="Shape_396_" class="st0" d="M2021.9-139l75.2,86.4l-102.9,29.7L2021.9-139L2021.9-139z"/>
<path id="Shape_397_" class="st0" d="M2062.4,86.6l-68.1-109.4l102.9-29.7L2062.4,86.6L2062.4,86.6z"/>
<path id="Shape_398_" class="st0" d="M2310.6-54.5l-99.9,66.7l-113.7-64.9L2310.6-54.5L2310.6-54.5z"/>
<path id="Shape_399_" class="st0" d="M2479.1-42.6l97.1-88.4l59.9,52.3L2479.1-42.6z"/>
<path id="Shape_400_" class="st0" d="M2576.1-131.1l51.4-134.6l8.4,187L2576.1-131.1L2576.1-131.1z"/>
<path id="Shape_401_" class="st0" d="M2456.9,700.1l127.8-108.8l42.9,84L2456.9,700.1L2456.9,700.1z"/>
<path id="Shape_402_" class="st0" d="M1248.7-71.3l217,16.9l-78.2,55.9L1248.7-71.3L1248.7-71.3z"/>
<path id="Shape_403_" class="st0" d="M1248.7-71.3l138.8,72.8L1252.7,52L1248.7-71.3L1248.7-71.3z"/>
<path id="Shape_404_" class="st0" d="M2640.4-562.5l-50.3,25.1l143.2,60.5L2640.4-562.5L2640.4-562.5z"/>
<path id="Shape_405_" class="st0" d="M2733.2-477l34.6-172.9l-127.6,87.3L2733.2-477L2733.2-477z"/>
<path id="Shape_406_" class="st0" d="M2767.9-649.9l-34.6,172.8l142-169.9L2767.9-649.9L2767.9-649.9z"/>
<path id="Shape_407_" class="st0" d="M3635.6-594.6l-128.4-42.8l62.9,125.9L3635.6-594.6L3635.6-594.6z"/>
<path id="Shape_411_" class="st0" d="M4036.7,706.9l5-134.5l168.2,134.5H4036.7L4036.7,706.9z"/>
<path id="Shape_412_" class="st0" d="M4036.7,706.9l-150.4-56.8l155.4-77.7L4036.7,706.9L4036.7,706.9z"/>
<path id="Shape_414_" class="st0" d="M3931.1,495.8l43.2-110.5l92.2,46.1L3931.1,495.8L3931.1,495.8z"/>
<path id="Shape_415_" class="st0" d="M3931.1,495.8l-181.8-34.6l225-75.9L3931.1,495.8L3931.1,495.8z"/>
<path id="Shape_416_" class="st0" d="M3931.1,495.8l-44.8,154.5l-137-189L3931.1,495.8L3931.1,495.8z"/>
<path id="Shape_417_" class="st0" d="M3931.1,495.8l110.6,76.8l-155.4,77.7L3931.1,495.8L3931.1,495.8z"/>
<path id="Shape_418_" class="st0" d="M3931.1,495.8l135.4-64.3l-24.8,141.1L3931.1,495.8L3931.1,495.8z"/>
<path id="Shape_419_" class="st0" d="M4036.7,284.4l25-144.5l107.8,181.8L4036.7,284.4L4036.7,284.4z"/>
<path id="Shape_420_" class="st0" d="M4036.7,284.4l-105.5-79.3l130.5-65.2L4036.7,284.4L4036.7,284.4z"/>
<path id="Shape_421_" class="st0" d="M4036.7,284.4l-62.5,100.8l-43-180.1L4036.7,284.4L4036.7,284.4z"/>
<path id="Shape_422_" class="st0" d="M4036.7,284.4l29.8,146.9l-92.2-46.1L4036.7,284.4L4036.7,284.4z"/>
<path id="Shape_423_" class="st0" d="M4036.7,284.4L4154,384.8l-87.6,46.6L4036.7,284.4L4036.7,284.4z"/>
<path id="Shape_424_" class="st0" d="M4036.7,284.4l132.7,37.2l-15.4,63.1L4036.7,284.4L4036.7,284.4z"/>
<path id="Shape_425_" class="st0" d="M3952.6,79.3l-59.6,116.9l1.8-192.7L3952.6,79.3L3952.6,79.3z"/>
<path id="Shape_426_" class="st0" d="M3952.6,79.3l-21.3,125.8l-38.3-8.9L3952.6,79.3L3952.6,79.3z"/>
<path id="Shape_427_" class="st0" d="M3952.6,79.3l109.1,60.5L3931.2,205L3952.6,79.3L3952.6,79.3z"/>
<path id="Shape_428_" class="st0" d="M3952.6,79.3L4148,90l-86.3,49.8L3952.6,79.3L3952.6,79.3z"/>
<path id="Shape_429_" class="st0" d="M3725.6,644.6l23.8-183.5l137,189L3725.6,644.6L3725.6,644.6z"/>
<path id="Shape_430_" class="st0" d="M3725.6,644.6l-3.8-196.2l27.6,12.7L3725.6,644.6L3725.6,644.6z"/>
<path id="Shape_431_" class="st0" d="M3725.6,644.6l-30.7-187.8l26.9-8.3L3725.6,644.6L3725.6,644.6z"/>
<path id="Shape_432_" class="st0" d="M3725.6,644.6l-112-69.4l81.3-118.4L3725.6,644.6L3725.6,644.6z"/>
<path id="Shape_433_" class="st0" d="M3725.6,644.6l-38.2,62.4l-73.8-131.8L3725.6,644.6L3725.6,644.6z"/>
<path id="Shape_434_" class="st0" d="M3725.6,644.6l142.3,62.4h-180.5L3725.6,644.6L3725.6,644.6z"/>
<path id="Shape_435_" class="st0" d="M3725.6,644.6l150.7,55.8l-8.4,6.6L3725.6,644.6L3725.6,644.6z"/>
<path id="Shape_436_" class="st0" d="M3725.6,644.6l160.7,5.5l-10.1,50.3L3725.6,644.6L3725.6,644.6z"/>
<path id="Shape_437_" class="st0" d="M3872.9,323.4l58.3-118.4l43,180.1L3872.9,323.4L3872.9,323.4z"/>
<path id="Shape_438_" class="st0" d="M3872.9,323.4l20-127.3l38.3,8.9L3872.9,323.4L3872.9,323.4z"/>
<path id="Shape_439_" class="st0" d="M3872.9,323.4l-117.7-97.3l137.7-30L3872.9,323.4L3872.9,323.4z"/>
<path id="Shape_440_" class="st0" d="M3872.9,323.4l-151.2,125l33.6-222.2L3872.9,323.4L3872.9,323.4z"/>
<path id="Shape_441_" class="st0" d="M3872.9,323.4L3749.2,461l-27.6-12.7L3872.9,323.4L3872.9,323.4z"/>
<path id="Shape_442_" class="st0" d="M3872.9,323.4l101.3,61.7l-225,75.9L3872.9,323.4L3872.9,323.4z"/>
<path id="Shape_443_" class="st0" d="M3821.8,88.8l73-85.3l-1.8,192.7L3821.8,88.8L3821.8,88.8z"/>
<path id="Shape_444_" class="st0" d="M3821.8,88.8l-159,39.2l90.4-91.5L3821.8,88.8L3821.8,88.8z"/>
<path id="Shape_445_" class="st0" d="M3821.8,88.8l-66.5,137.4l-92.5-98.2L3821.8,88.8L3821.8,88.8z"/>
<path id="Shape_446_" class="st0" d="M3821.8,88.8l71.2,107.4l-137.7,30L3821.8,88.8L3821.8,88.8z"/>
<path id="Shape_447_" class="st0" d="M3614.1,706.9l-0.6-131.8l73.8,131.8H3614.1L3614.1,706.9z"/>
<path id="Shape_448_" class="st0" d="M3614.1,706.9l-112.7-75.7l112.1-56.1L3614.1,706.9L3614.1,706.9z"/>
<path id="Shape_449_" class="st0" d="M3614.1,706.9l-116.9-71.2l4.1-4.4L3614.1,706.9L3614.1,706.9z M3614.1,706.9h-91.7l-25.2-71.2
	L3614.1,706.9L3614.1,706.9z"/>
<path id="Shape_450_" class="st0" d="M3508.4,495.8l39.1-112.5l147.2,73.6L3508.4,495.8L3508.4,495.8z"/>
<path id="Shape_451_" class="st0" d="M3508.4,495.8l-73.7-76.3l112.7-36.2L3508.4,495.8L3508.4,495.8z"/>
<path id="Shape_452_" class="st0" d="M3508.4,495.8l-7.1,135.6l-66.6-211.9L3508.4,495.8L3508.4,495.8z"/>
<path id="Shape_453_" class="st0" d="M3508.4,495.8l105,79.5l-112.1,56.1L3508.4,495.8L3508.4,495.8z"/>
<path id="Shape_454_" class="st0" d="M3508.4,495.8l186.3-38.9l-81.3,118.4L3508.4,495.8L3508.4,495.8z"/>
<path id="Shape_455_" class="st0" d="M3614.1,284.4l48.7-156.4l92.5,98.2L3614.1,284.4L3614.1,284.4z"/>
<path id="Shape_456_" class="st0" d="M3614.1,284.4l-99.8-82.2l148.5-74.2L3614.1,284.4L3614.1,284.4z"/>
<path id="Shape_457_" class="st0" d="M3614.1,284.4l-66.6,98.8l-33.2-180.9L3614.1,284.4L3614.1,284.4z"/>
<path id="Shape_458_" class="st0" d="M3614.1,284.4l80.7,172.4l-147.2-73.6L3614.1,284.4L3614.1,284.4z"/>
<path id="Shape_459_" class="st0" d="M3614.1,284.4l107.6,164.1l-26.9,8.3L3614.1,284.4L3614.1,284.4z"/>
<path id="Shape_460_" class="st0" d="M3614.1,284.4l141.2-58.2l-33.6,222.2L3614.1,284.4L3614.1,284.4z"/>
<path id="Shape_461_" class="st0" d="M3564.2,103.6l-71,93.5l-39.6-149.8L3564.2,103.6L3564.2,103.6z"/>
<path id="Shape_462_" class="st0" d="M3564.2,103.6l-49.9,98.6l-21.1-5.1L3564.2,103.6L3564.2,103.6z"/>
<path id="Shape_463_" class="st0" d="M3564.2,103.6l98.6,24.4l-148.5,74.2L3564.2,103.6L3564.2,103.6z"/>
<path id="Shape_464_" class="st0" d="M3564.2,103.6l189-67.1l-90.4,91.5L3564.2,103.6L3564.2,103.6z"/>
<path id="Shape_465_" class="st0" d="M3451.2,764.6l46.1-128.9l25.2,71.2L3451.2,764.6L3451.2,764.6z"/>
<path id="Shape_466_" class="st0" d="M3451.2,764.6l-112.5-107l158.5-21.9L3451.2,764.6L3451.2,764.6z"/>
<path id="Shape_467_" class="st0" d="M3417.9,524.1l16.8-104.7l66.6,211.9L3417.9,524.1L3417.9,524.1z"/>
<path id="Shape_468_" class="st0" d="M3417.9,524.1l-108.8-124l125.6,19.3L3417.9,524.1L3417.9,524.1z"/>
<path id="Shape_469_" class="st0" d="M3417.9,524.1l-160.9-74.9l52-49.2L3417.9,524.1L3417.9,524.1z"/>
<path id="Shape_470_" class="st0" d="M3417.9,524.1l-169.2,22.2l8.3-97L3417.9,524.1L3417.9,524.1z"/>
<path id="Shape_471_" class="st0" d="M3417.9,524.1l-79.3,133.5l-89.9-111.3L3417.9,524.1L3417.9,524.1z"/>
<path id="Shape_472_" class="st0" d="M3417.9,524.1l79.2,111.6l-158.5,21.9L3417.9,524.1L3417.9,524.1z"/>
<path id="Shape_473_" class="st0" d="M3417.9,524.1l83.4,107.2l-4.1,4.4L3417.9,524.1L3417.9,524.1z"/>
<path id="Shape_474_" class="st0" d="M3450.2,314.4l64.1-112.3l33.2,180.9L3450.2,314.4L3450.2,314.4z"/>
<path id="Shape_475_" class="st0" d="M3450.2,314.4l43-117.4l21.1,5.1L3450.2,314.4L3450.2,314.4z"/>
<path id="Shape_476_" class="st0" d="M3450.2,314.4l-127-35.4l169.9-81.9L3450.2,314.4L3450.2,314.4z"/>
<path id="Shape_477_" class="st0" d="M3450.2,314.4L3309.1,400l14.1-121L3450.2,314.4L3450.2,314.4z"/>
<path id="Shape_478_" class="st0" d="M3450.2,314.4l-15.4,104.9L3309.2,400L3450.2,314.4L3450.2,314.4z"/>
<path id="Shape_479_" class="st0" d="M3450.2,314.4l97.3,68.7l-112.7,36.2L3450.2,314.4L3450.2,314.4z"/>
<path id="Shape_480_" class="st0" d="M3374.6,157.8l79-110.3l39.6,149.8L3374.6,157.8L3374.6,157.8z"/>
<path id="Shape_481_" class="st0" d="M3374.6,157.8l-150.4-21.7l32.9-81.8L3374.6,157.8L3374.6,157.8z"/>
<path id="Shape_482_" class="st0" d="M3374.6,157.8l-51.4,121.4l-99-143.1L3374.6,157.8L3374.6,157.8z"/>
<path id="Shape_483_" class="st0" d="M3374.6,157.8l118.6,39.5l-169.9,81.9L3374.6,157.8L3374.6,157.8z"/>
<path id="Shape_484_" class="st0" d="M3191.4,706.9l57.3-160.7l89.9,111.3L3191.4,706.9L3191.4,706.9z"/>
<path id="Shape_485_" class="st0" d="M3191.4,706.9l-98.7-82.7l156-78L3191.4,706.9L3191.4,706.9z"/>
<path id="Shape_486_" class="st0" d="M3191.4,706.9h-59.9l-38.8-82.7L3191.4,706.9L3191.4,706.9z"/>
<path id="Shape_487_" class="st0" d="M3085.9,495.8l71.7-96.2l99.6,49.8L3085.9,495.8L3085.9,495.8z"/>
<path id="Shape_488_" class="st0" d="M3085.9,495.8l-67.9-18.1l139.6-78.1L3085.9,495.8L3085.9,495.8z"/>
<path id="Shape_489_" class="st0" d="M3085.9,495.8l-56.8,130.4l-11.1-148.5L3085.9,495.8L3085.9,495.8z"/>
<path id="Shape_490_" class="st0" d="M3085.9,495.8l6.9,128.6l-63.8,1.9L3085.9,495.8L3085.9,495.8z"/>
<path id="Shape_491_" class="st0" d="M3085.9,495.8l162.9,50.6l-156,78L3085.9,495.8L3085.9,495.8z"/>
<path id="Shape_492_" class="st0" d="M3085.9,495.8l171.3-46.4l-8.3,97L3085.9,495.8L3085.9,495.8z"/>
<path id="Shape_493_" class="st0" d="M3191.4,284.4l32.7-148.4l99,143.1L3191.4,284.4L3191.4,284.4z"/>
<path id="Shape_494_" class="st0" d="M3191.4,284.4l-76.8-93.6l109.5-54.8L3191.4,284.4L3191.4,284.4z"/>
<path id="Shape_495_" class="st0" d="M3191.4,284.4l-117.3,13.4l40.5-107.1L3191.4,284.4L3191.4,284.4z"/>
<path id="Shape_496_" class="st0" d="M3191.4,284.4l-34,115.1l-83.3-101.7L3191.4,284.4L3191.4,284.4z"/>
<path id="Shape_497_" class="st0" d="M3191.4,284.4l65.6,164.9l-99.6-49.8L3191.4,284.4L3191.4,284.4z"/>
<path id="Shape_498_" class="st0" d="M3191.4,284.4l117.6,115.7l-52,49.2L3191.4,284.4L3191.4,284.4z"/>
<path id="Shape_499_" class="st0" d="M3191.4,284.4l131.7-5.3l-14.1,121L3191.4,284.4L3191.4,284.4z"/>
<path id="Shape_500_" class="st0" d="M3068.6,56.2l-87.8,47.4L2908,38L3068.6,56.2z"/>
<path id="Shape_501_" class="st0" d="M3068.6,56.2l46.1,134.6l-133.9-87.2L3068.6,56.2z"/>
<path id="Shape_502_" class="st0" d="M3076.9,62.9l147.3,73l-109.5,54.8L3076.9,62.9L3076.9,62.9z"/>
<path id="Shape_503_" class="st0" d="M3076.9,62.9l180.2-8.8l-32.9,81.8L3076.9,62.9L3076.9,62.9z"/>
<path id="Shape_504_" class="st0" d="M3093.4,752.9l-0.6-128.8l38.8,82.7L3093.4,752.9L3093.4,752.9z"/>
<path id="Shape_505_" class="st0" d="M3093.4,752.9L3029.1,626l63.8-1.9L3093.4,752.9L3093.4,752.9z"/>
<path id="Shape_506_" class="st0" d="M3093.4,752.9l-154.7-75.8l90.4-51.1L3093.4,752.9L3093.4,752.9z"/>
<path id="Shape_507_" class="st0" d="M2953.4,505.6l64.5-28l11.1,148.5L2953.4,505.6L2953.4,505.6z"/>
<path id="Shape_508_" class="st0" d="M2953.4,505.6l-59.5-137.9l124,110L2953.4,505.6L2953.4,505.6z"/>
<path id="Shape_509_" class="st0" d="M2953.4,505.6l-132.1-74.7l72.6-63.2L2953.4,505.6L2953.4,505.6z"/>
<path id="Shape_510_" class="st0" d="M2953.4,505.6L2828.6,529l-7.2-98.1L2953.4,505.6z"/>
<path id="Shape_511_" class="st0" d="M2953.4,505.6l-14.8,171.6L2828.6,529L2953.4,505.6z"/>
<path id="Shape_512_" class="st0" d="M2953.4,505.6l75.6,120.5l-90.4,51.1L2953.4,505.6L2953.4,505.6z"/>
<path id="Shape_513_" class="st0" d="M3038.1,410.3l36.1-112.4l83.4,101.6L3038.1,410.3L3038.1,410.3z"/>
<path id="Shape_514_" class="st0" d="M3038.1,410.3l-127.9-77.2l164-35.2L3038.1,410.3L3038.1,410.3z"/>
<path id="Shape_515_" class="st0" d="M3038.1,410.3l-144.1-42.6l16.2-34.6L3038.1,410.3L3038.1,410.3z"/>
<path id="Shape_516_" class="st0" d="M3038.1,410.3l-20.1,67.3l-124-110L3038.1,410.3L3038.1,410.3z"/>
<path id="Shape_517_" class="st0" d="M3038.1,410.3l119.5-10.8l-139.6,78.1L3038.1,410.3L3038.1,410.3z"/>
<path id="Shape_518_" class="st0" d="M2995.1,210.1l-14.3-106.5l133.9,87.1L2995.1,210.1L2995.1,210.1z"/>
<path id="Shape_519_" class="st0" d="M2995.1,210.1l-124.2-52l109.9-54.5L2995.1,210.1L2995.1,210.1z"/>
<path id="Shape_520_" class="st0" d="M2995.1,210.1L2910.1,333l-39.3-174.9L2995.1,210.1L2995.1,210.1z"/>
<path id="Shape_521_" class="st0" d="M2995.1,210.1l79.1,87.7l-164,35.2L2995.1,210.1L2995.1,210.1z"/>
<path id="Shape_522_" class="st0" d="M2995.1,210.1l119.6-19.4l-40.5,107.1L2995.1,210.1L2995.1,210.1z"/>
<path id="Shape_523_" class="st0" d="M2773.9,657.6l54.7-128.6l110.1,148.3L2773.9,657.6L2773.9,657.6z"/>
<path id="Shape_524_" class="st0" d="M2773.9,657.6l-17.6-101.5l72.3-27.2L2773.9,657.6L2773.9,657.6z"/>
<path id="Shape_525_" class="st0" d="M2773.9,657.6l-189.1-66.3l171.5-35.2L2773.9,657.6z"/>
<path id="Shape_526_" class="st0" d="M2790.8,185.1l80.2-26.9l39.3,174.9L2790.8,185.1L2790.8,185.1z"/>
<path id="Shape_527_" class="st0" d="M2790.8,185.1l-9.4-95.7l89.6,68.7L2790.8,185.1L2790.8,185.1z"/>
<path id="Shape_528_" class="st0" d="M2803.2,292.8l90.8,74.9l-72.6,63.2L2803.2,292.8L2803.2,292.8z"/>
<path id="Shape_529_" class="st0" d="M2803.2,292.8l106.9,40.3l-16.2,34.6L2803.2,292.8L2803.2,292.8z"/>
<path id="Shape_530_" class="st0" d="M2781.2,89.4l199.5,14.2l-109.8,54.5L2781.2,89.4L2781.2,89.4z"/>
<path id="Shape_531_" class="st0" d="M2980.8,103.6l-199.6-14.2l126.8-51.5L2980.8,103.6z"/>
<path id="Shape_532_" class="st0" d="M2910.2,332.9l-106.9-40.3L2790.8,185L2910.2,332.9L2910.2,332.9z"/>
<path id="Shape_533_" class="st0" d="M3114.8,190.8l-46.1-134.5l8.4,6.8L3114.8,190.8L3114.8,190.8z"/>
<path id="Shape_534_" class="st0" d="M2584.9,591.3l189.2,66.3l-146.3,17.7L2584.9,591.3L2584.9,591.3z"/>
<path id="Shape_535_" class="st0" d="M1875.8,591.3l72.1,3l28.2,58.7L1875.8,591.3L1875.8,591.3z"/>
<path id="Shape_536_" class="st0" d="M4006.1,8.2l-113.1-4.7l59.6,75.9L4006.1,8.2L4006.1,8.2z"/>
<path id="Shape_537_" class="st0" d="M4148,89.9L4006.2,8.1l-53.5,71.1L4148,89.9L4148,89.9z"/>
<path id="Shape_538_" class="st0" d="M2584.9,591.3l-127.8,108.8l-32.7-115.4L2584.9,591.3L2584.9,591.3z"/>
<path id="Shape_539_" class="st0" d="M1798.3,623.1l-18.2-73.2l95.6,41.4L1798.3,623.1L1798.3,623.1z"/>
<path id="Shape_540_" class="st0" d="M1798.3,623.1l-118.7-31.8l100.5-41.4L1798.3,623.1L1798.3,623.1z"/>
<path id="Shape_541_" class="st0" d="M2424.1,584.8l32.7,115.4l-91.3-104.9L2424.1,584.8L2424.1,584.8z"/>
<path id="Shape_542_" class="st0" d="M2235.4,591.3l130.3,3.9l-76.8,115.9L2235.4,591.3L2235.4,591.3z"/>
<path id="Shape_543_" class="st0" d="M2365.6,595.2l91.3,104.9l-168,11L2365.6,595.2L2365.6,595.2z"/>
<path id="Shape_544_" class="st0" d="M2155.4,787.9l79.9-196.7l53.6,119.8L2155.4,787.9L2155.4,787.9z"/>
<g id="Shape_545_" transform="translate(112.000000, 1418.000000)">
	<path class="st0" d="M1993.4-821.9l-16.7,93l146.5-97.9L1993.4-821.9L1993.4-821.9z"/>
	<path class="st0" d="M1993.4-821.9l-129.4,56.8l112.8,36.2L1993.4-821.9L1993.4-821.9z"/>
	<path class="st0" d="M2043.3-630l79.9-196.7l-146.5,97.9L2043.3-630L2043.3-630z"/>
	<path class="st0" d="M1763.8-826.6l-25.4,80.8l125.6-19.3L1763.8-826.6L1763.8-826.6z"/>
	<path class="st0" d="M1763.8-826.6l-77.4,31.7l52,49.2L1763.8-826.6L1763.8-826.6z"/>
	<path class="st0" d="M1568.8-826.8l17.9,81.6l99.6-49.8L1568.8-826.8L1568.8-826.8z"/>
	<path class="st0" d="M1568.8-826.8l-125,28.7l142.9,52.9L1568.8-826.8L1568.8-826.8z"/>
	<path class="st0" d="M1620.8-630l65.6-164.9l-99.6,49.8L1620.8-630L1620.8-630z"/>
	<path class="st0" d="M1620.8-630l117.6-115.7l-52-49.2L1620.8-630L1620.8-630z"/>
	<path class="st0" d="M1303.7-804.9l19.7,91.5l120.6-84.7L1303.7-804.9L1303.7-804.9z"/>
	<path class="st0" d="M1303.7-804.9l-63.8,21.9l83.4,69.6L1303.7-804.9L1303.7-804.9z"/>
	<path class="st0" d="M1467.2-756l-23.4-42.1l-120.6,84.7L1467.2-756L1467.2-756z"/>
	<path class="st0" d="M1467.2-756l119.5,10.8l-142.9-52.9L1467.2-756L1467.2-756z"/>
	<path class="st0" d="M1092.6-841.4l93,85.6l54.3-27.1L1092.6-841.4L1092.6-841.4z"/>
	<path class="st0" d="M1166.2-595l19.3-160.9l12.7,125.7L1166.2-595L1166.2-595z M1185.4-755.8l54.3-27.1L1198.1-630L1185.4-755.8
		L1185.4-755.8z"/>
	<path class="st0" d="M1198.2-630l125.1-83.2l-83.4-69.6L1198.2-630L1198.2-630z"/>
</g>
<path id="Shape_546_" class="st0" d="M1415.6,613.2l71.1-51.6l69.2,58.4L1415.6,613.2z"/>
<path id="Shape_547_" class="st0" d="M1316.9,591.3l34.8,43.8l-147.3-58.4L1316.9,591.3L1316.9,591.3z"/>
</svg>
