<?xml version="1.0" encoding="UTF-8" standalone="no"?>
<svg width="2738px" height="1211px" viewBox="0 0 2738 1211" version="1.1" xmlns="http://www.w3.org/2000/svg" xmlns:xlink="http://www.w3.org/1999/xlink" xmlns:sketch="http://www.bohemiancoding.com/sketch/ns">
    <!-- Generator: Sketch 3.3.3 (12072) - http://www.bohemiancoding.com/sketch -->
    <title>Artboard 1</title>
    <desc>Created with Sketch.</desc>
    <defs></defs>
    <g id="Page-1" stroke="none" stroke-width="1" fill="none" fill-rule="evenodd" sketch:type="MSPage">
        <g id="formidangles-lighter" sketch:type="MSLayerGroup" transform="translate(-213.000000, -284.000000)">
            <g id="high_contrast_copy_2" sketch:type="MSShapeGroup">
                <g id="Group">
                    <path d="M132.9,322.9 L238.2,429.6 L150.6,476.2 L132.9,322.9 L132.9,322.9 Z" id="Shape" fill="#EAEAEA"></path>
                    <path d="M132.9,322.9 L263,288.5 L238.2,429.6 L132.9,322.9 L132.9,322.9 Z" id="Shape" fill="#EBEBEB"></path>
                    <path d="M132.9,322.9 L94.8,154 L263,288.5 L132.9,322.9 L132.9,322.9 Z" id="Shape" fill="#EFEFEF"></path>
                    <path d="M104.2,673.6 L243,721.1 L156.7,770.9 L104.2,673.6 Z" id="Shape" fill="#F4F4F4"></path>
                    <path d="M104.2,673.6 L135.2,539.3 L243,721.1 L104.2,673.6 L104.2,673.6 Z" id="Shape" fill="#F2F2F2"></path>
                    <path d="M268,154 L263,288.5 L94.8,154 L268,154 L268,154 Z" id="Shape" fill="#EFEFEF"></path>
                    <path d="M268,154 L418.4,210.8 L263,288.5 L268,154 L268,154 Z" id="Shape" fill="#E8E8E8"></path>
                    <path d="M373.6,365.3 L330.5,475.7 L238.3,429.6 L373.6,365.3 L373.6,365.3 Z" id="Shape" fill="#EFEFEF"></path>
                    <path d="M373.6,365.3 L555.4,399.9 L330.4,475.8 L373.6,365.3 L373.6,365.3 Z" id="Shape" fill="#F4F4F4"></path>
                    <path d="M373.6,365.3 L418.4,210.8 L555.4,399.8 L373.6,365.3 L373.6,365.3 Z" id="Shape" fill="#FFFFFF"></path>
                    <path d="M373.6,365.3 L263,288.5 L418.4,210.8 L373.6,365.3 L373.6,365.3 Z" id="Shape" fill="#F4F4F4"></path>
                    <path d="M373.6,365.3 L238.2,429.6 L263,288.5 L373.6,365.3 L373.6,365.3 Z" id="Shape" fill="#F4F4F4"></path>
                    <path d="M268,576.5 L243,721 L135.2,539.2 L268,576.5 L268,576.5 Z" id="Shape" fill="#EFEFEF"></path>
                    <path d="M268,576.5 L373.5,655.8 L243,721.1 L268,576.5 L268,576.5 Z" id="Shape" fill="#F2F2F2"></path>
                    <path d="M268,576.5 L330.5,475.7 L373.5,655.8 L268,576.5 L268,576.5 Z" id="Shape" fill="#EBEBEB"></path>
                    <path d="M268,576.5 L238.2,429.6 L330.4,475.7 L268,576.5 L268,576.5 Z" id="Shape" fill="#EDEDED"></path>
                    <path d="M268,576.5 L150.6,476.2 L238.2,429.6 L268,576.5 L268,576.5 Z" id="Shape" fill="#E8E8E8"></path>
                    <path d="M268,576.5 L135.3,539.3 L150.7,476.2 L268,576.5 L268,576.5 Z" id="Shape" fill="#EFEFEF"></path>
                    <path d="M373.6,787.8 L411.7,664.7 L415.7,821.6 L373.6,787.8 L373.6,787.8 Z" id="Shape" fill="#F4F4F4"></path>
                    <path d="M373.6,787.8 L373.4,655.8 L411.7,664.7 L373.6,787.8 L373.6,787.8 Z" id="Shape" fill="#F4F4F4"></path>
                    <path d="M373.6,787.8 L243,721.1 L373.5,655.9 L373.6,787.8 L373.6,787.8 Z" id="Shape" fill="#E8E8E8"></path>
                    <path d="M373.6,787.8 L156.6,770.9 L242.9,721.1 L373.6,787.8 L373.6,787.8 Z" id="Shape" fill="#F4F4F4"></path>
                    <path d="M579.2,216.3 L555.4,399.8 L418.4,210.8 L579.2,216.3 L579.2,216.3 Z" id="Shape" fill="#EFEFEF"></path>
                    <path d="M579.2,216.3 L583,412.5 L555.4,399.8 L579.2,216.3 L579.2,216.3 Z" id="Shape" fill="#F2F2F2"></path>
                    <path d="M579.2,216.3 L609.9,404.1 L583,412.4 L579.2,216.3 L579.2,216.3 Z" id="Shape" fill="#E8E8E8"></path>
                    <path d="M579.2,216.3 L691.2,285.7 L609.9,404.1 L579.2,216.3 L579.2,216.3 Z" id="Shape" fill="#FFFFFF"></path>
                    <path d="M579.2,216.3 L617.4,153.9 L691.2,285.7 L579.2,216.3 L579.2,216.3 Z" id="Shape" fill="#F4F4F4"></path>
                    <path d="M431.7,537.4 L373.4,655.8 L330.4,475.7 L431.7,537.4 L431.7,537.4 Z" id="Shape" fill="#F4F4F4"></path>
                    <path d="M431.7,537.4 L411.7,664.7 L373.4,655.8 L431.7,537.4 L431.7,537.4 Z" id="Shape" fill="#EFEFEF"></path>
                    <path d="M431.7,537.4 L549.4,634.7 L411.7,664.7 L431.7,537.4 L431.7,537.4 Z" id="Shape" fill="#F2F2F2"></path>
                    <path d="M431.7,537.4 L582.9,412.4 L549.3,634.6 L431.7,537.4 L431.7,537.4 Z" id="Shape" fill="#FFFFFF"></path>
                    <path d="M431.7,537.4 L555.4,399.8 L583,412.5 L431.7,537.4 L431.7,537.4 Z" id="Shape" fill="#F7F7F7"></path>
                    <path d="M431.7,537.4 L330.5,475.7 L555.5,399.8 L431.7,537.4 L431.7,537.4 Z" id="Shape" fill="#EFEFEF"></path>
                    <path d="M482.9,772.2 L415.8,821.7 L411.8,664.8 L482.9,772.2 L482.9,772.2 Z" id="Shape" fill="#EFEFEF"></path>
                    <path d="M482.9,772.2 L641.9,733 L549.4,808.9 L482.9,772.2 L482.9,772.2 Z" id="Shape" fill="#EAEAEA"></path>
                    <path d="M482.9,772.2 L549.4,634.8 L641.9,733 L482.9,772.2 L482.9,772.2 Z" id="Shape" fill="#F9F9F9"></path>
                    <path d="M482.9,772.2 L411.7,664.8 L549.4,634.8 L482.9,772.2 L482.9,772.2 Z" id="Shape" fill="#EDEDED"></path>
                    <path d="M690.6,154 L691.2,285.8 L617.4,154 L690.6,154 L690.6,154 Z" id="Shape" fill="#EFEFEF"></path>
                    <path d="M690.6,154 L803.3,229.7 L691.2,285.7 L690.6,154 L690.6,154 Z" id="Shape" fill="#E8E8E8"></path>
                    <path d="M796.2,365.3 L757.1,477.8 L609.9,404.2 L796.2,365.3 L796.2,365.3 Z" id="Shape" fill="#EFEFEF"></path>
                    <path d="M796.2,365.3 L869.9,441.6 L757.2,477.8 L796.2,365.3 L796.2,365.3 Z" id="Shape" fill="#F4F4F4"></path>
                    <path d="M796.2,365.3 L803.3,229.7 L869.9,441.6 L796.2,365.3 L796.2,365.3 Z" id="Shape" fill="#F4F4F4"></path>
                    <path d="M796.2,365.3 L691.2,285.8 L803.3,229.7 L796.2,365.3 L796.2,365.3 Z" id="Shape" fill="#E8E8E8"></path>
                    <path d="M796.2,365.3 L609.9,404.2 L691.2,285.7 L796.2,365.3 L796.2,365.3 Z" id="Shape" fill="#F4F4F4"></path>
                    <path d="M690.6,576.5 L641.9,732.9 L549.4,634.7 L690.6,576.5 L690.6,576.5 Z" id="Shape" fill="#EFEFEF"></path>
                    <path d="M690.6,576.5 L790.4,658.7 L641.9,732.9 L690.6,576.5 L690.6,576.5 Z" id="Shape" fill="#EFEFEF"></path>
                    <path d="M690.6,576.5 L757.2,477.7 L790.4,658.6 L690.6,576.5 L690.6,576.5 Z" id="Shape" fill="#EAEAEA"></path>
                    <path d="M690.6,576.5 L609.9,404.1 L757.1,477.7 L690.6,576.5 L690.6,576.5 Z" id="Shape" fill="#EDEDED"></path>
                    <path d="M690.6,576.5 L583,412.5 L609.9,404.2 L690.6,576.5 L690.6,576.5 Z" id="Shape" fill="#EFEFEF"></path>
                    <path d="M690.6,576.5 L549.4,634.7 L583,412.5 L690.6,576.5 L690.6,576.5 Z" id="Shape" fill="#F4F4F4"></path>
                    <path d="M726.5,780.5 L811.5,663.8 L798.1,827.4 L726.5,780.5 L726.5,780.5 Z" id="Shape" fill="#EDEDED"></path>
                    <path d="M726.5,780.5 L790.4,658.7 L811.5,663.8 L726.5,780.5 L726.5,780.5 Z" id="Shape" fill="#F4F4F4"></path>
                    <path d="M726.5,780.5 L642,732.9 L790.5,658.7 L726.5,780.5 L726.5,780.5 Z" id="Shape" fill="#F7F7F7"></path>
                    <path d="M726.5,780.5 L549.5,808.9 L642,733 L726.5,780.5 L726.5,780.5 Z" id="Shape" fill="#EFEFEF"></path>
                    <path d="M886.7,336.8 L869.9,441.5 L803.3,229.7 L886.7,336.8 L886.7,336.8 Z" id="Shape" fill="#EFEFEF"></path>
                    <path d="M886.7,336.8 L995.5,460.8 L869.9,441.5 L886.7,336.8 L886.7,336.8 Z" id="Shape" fill="#F2F2F2"></path>
                    <path d="M886.7,336.8 L1047.6,411.7 L995.6,460.9 L886.7,336.8 L886.7,336.8 Z" id="Shape" fill="#EBEBEB"></path>
                    <path d="M886.7,336.8 L1055.9,314.6 L1047.6,411.6 L886.7,336.8 L886.7,336.8 Z" id="Shape" fill="#F9F9F9"></path>
                    <path d="M886.7,336.8 L966,203.3 L1055.9,314.6 L886.7,336.8 L886.7,336.8 Z" id="Shape" fill="#F1F1F1"></path>
                    <path d="M886.7,336.8 L807.5,225.2 L966,203.3 L886.7,336.8 L886.7,336.8 Z" id="Shape" fill="#E8E8E8"></path>
                    <path d="M886.7,336.8 L803.3,229.7 L807.4,225.3 L886.7,336.8 L886.7,336.8 Z" id="Shape" fill="#EFEFEF"></path>
                    <path d="M854.5,546.4 L790.4,658.7 L757.2,477.8 L854.5,546.4 L854.5,546.4 Z" id="Shape" fill="#F4F4F4"></path>
                    <path d="M854.5,546.4 L811.5,663.8 L790.4,658.7 L854.5,546.4 L854.5,546.4 Z" id="Shape" fill="#EFEFEF"></path>
                    <path d="M854.5,546.4 L981.5,581.8 L811.6,663.7 L854.5,546.4 L854.5,546.4 Z" id="Shape" fill="#FFFFFF"></path>
                    <path d="M854.5,546.4 L995.6,460.8 L981.5,581.8 L854.5,546.4 L854.5,546.4 Z" id="Shape" fill="#EFEFEF"></path>
                    <path d="M854.5,546.4 L869.9,441.5 L995.5,460.8 L854.5,546.4 L854.5,546.4 Z" id="Shape" fill="#F2F2F2"></path>
                    <path d="M854.5,546.4 L757.2,477.7 L869.9,441.5 L854.5,546.4 L854.5,546.4 Z" id="Shape" fill="#E8E8E8"></path>
                    <path d="M930.1,703.3 L798.1,827.4 L811.5,663.8 L930.1,703.3 L930.1,703.3 Z" id="Shape" fill="#F7F7F7"></path>
                    <path d="M930.1,703.3 L1080.5,725 L1005.3,789.7 L930.1,703.3 L930.1,703.3 Z" id="Shape" fill="#EAEAEA"></path>
                    <path d="M930.1,703.3 L981.5,581.9 L1080.5,725 L930.1,703.3 L930.1,703.3 Z" id="Shape" fill="#F7F7F7"></path>
                    <path d="M930.1,703.3 L811.5,663.8 L981.4,581.9 L930.1,703.3 L930.1,703.3 Z" id="Shape" fill="#F4F4F4"></path>
                    <path d="M1113.2,154 L1055.9,314.7 L966,203.3 L1113.2,154 L1113.2,154 Z" id="Shape" fill="#EFEFEF"></path>
                    <path d="M1113.2,154 L1211.9,236.7 L1055.9,314.7 L1113.2,154 L1113.2,154 Z" id="Shape" fill="#EFEFEF"></path>
                    <path d="M1218.8,365.3 L1147.1,461.5 L1047.5,411.7 L1218.8,365.3 L1218.8,365.3 Z" id="Shape" fill="#EFEFEF"></path>
                    <path d="M1218.8,365.3 L1286.7,383.4 L1147.1,461.5 L1218.8,365.3 L1218.8,365.3 Z" id="Shape" fill="#EFEFEF"></path>
                    <path d="M1218.8,365.3 L1275.6,234.9 L1286.7,383.4 L1218.8,365.3 L1218.8,365.3 Z" id="Shape" fill="#EDEDED"></path>
                    <path d="M1218.8,365.3 L1211.9,236.7 L1275.7,234.8 L1218.8,365.3 L1218.8,365.3 Z" id="Shape" fill="#F4F4F4"></path>
                    <path d="M1218.8,365.3 L1055.9,314.7 L1211.9,236.7 L1218.8,365.3 L1218.8,365.3 Z" id="Shape" fill="#F7F7F7"></path>
                    <path d="M1218.8,365.3 L1047.5,411.7 L1055.8,314.7 L1218.8,365.3 L1218.8,365.3 Z" id="Shape" fill="#EFEFEF"></path>
                    <path d="M1113.2,576.5 L1080.5,724.9 L981.5,581.8 L1113.2,576.5 L1113.2,576.5 Z" id="Shape" fill="#FFFFFF"></path>
                    <path d="M1113.2,576.5 L1190,670.1 L1080.5,724.9 L1113.2,576.5 L1113.2,576.5 Z" id="Shape" fill="#E8E8E8"></path>
                    <path d="M1113.2,576.5 L1230.5,563.1 L1190,670.2 L1113.2,576.5 L1113.2,576.5 Z" id="Shape" fill="#F4F4F4"></path>
                    <path d="M1113.2,576.5 L1147.2,461.4 L1230.6,563 L1113.2,576.5 L1113.2,576.5 Z" id="Shape" fill="#F4F4F4"></path>
                    <path d="M1113.2,576.5 L1047.6,411.6 L1147.2,461.4 L1113.2,576.5 L1113.2,576.5 Z" id="Shape" fill="#EAEAEA"></path>
                    <path d="M1113.2,576.5 L995.5,460.8 L1047.5,411.6 L1113.2,576.5 L1113.2,576.5 Z" id="Shape" fill="#EFEFEF"></path>
                    <path d="M1113.2,576.5 L981.5,581.8 L995.6,460.8 L1113.2,576.5 L1113.2,576.5 Z" id="Shape" fill="#F4F4F4"></path>
                    <path d="M1218.8,787.8 L1302.4,770.9 L1228.2,843.7 L1218.8,787.8 Z" id="Shape" fill="#EFEFEF"></path>
                    <path d="M1218.8,787.8 L1190,670.2 L1302.4,770.9 L1218.8,787.8 Z" id="Shape" fill="#EFEFEF"></path>
                    <path d="M1218.8,787.8 L1080.5,724.9 L1190,670.2 L1218.8,787.8 L1218.8,787.8 Z" id="Shape" fill="#EFEFEF"></path>
                    <path d="M1218.8,787.8 L1005.3,789.6 L1080.5,724.9 L1218.8,787.8 L1218.8,787.8 Z" id="Shape" fill="#E8E8E8"></path>
                    <path d="M1351.2,355.4 L1286.7,383.4 L1275.6,234.9 L1351.2,355.4 L1351.2,355.4 Z" id="Shape" fill="#FFFFFF"></path>
                    <path d="M1351.2,355.4 L1410.7,493.3 L1286.7,383.3 L1351.2,355.4 L1351.2,355.4 Z" id="Shape" fill="#EFEFEF"></path>
                    <path d="M1351.2,355.4 L1494.1,423.7 L1410.7,493.3 L1351.2,355.4 L1351.2,355.4 Z" id="Shape" fill="#EDEDED"></path>
                    <path d="M1351.2,355.4 L1498.2,304.8 L1494.1,423.7 L1351.2,355.4 L1351.2,355.4 Z M1351.2,355.4 L1366,183.7 L1498.2,304.8 L1351.2,355.4 L1351.2,355.4 Z" id="Shape" fill="#F7F7F7"></path>
                    <path d="M1351.2,355.4 L1275.6,234.9 L1366,183.8 L1351.2,355.4 L1351.2,355.4 Z" id="Shape" fill="#E8E8E8"></path>
                    <path d="M1266.6,450.7 L1230.5,563.1 L1147.1,461.5 L1266.6,450.7 L1266.6,450.7 Z" id="Shape" fill="#F4F4F4"></path>
                    <path d="M1266.6,450.7 L1394.5,527.9 L1230.5,563.1 L1266.6,450.7 L1266.6,450.7 Z" id="Shape" fill="#E8E8E8"></path>
                    <path d="M1266.6,450.7 L1410.7,493.3 L1394.5,527.9 L1266.6,450.7 L1266.6,450.7 Z" id="Shape" fill="#EFEFEF"></path>
                    <path d="M1266.6,450.7 L1286.7,383.4 L1410.7,493.4 L1266.6,450.7 L1266.6,450.7 Z" id="Shape" fill="#FFFFFF"></path>
                    <path d="M1266.6,450.7 L1147.1,461.5 L1286.7,383.4 L1266.6,450.7 L1266.6,450.7 Z" id="Shape" fill="#EAEAEA"></path>
                    <path d="M1309.6,650.8 L1302.5,770.9 L1190,670.2 L1309.6,650.8 L1309.6,650.8 Z" id="Shape" fill="#F4F4F4"></path>
                    <path d="M1309.6,650.8 L1403,655.7 L1302.5,770.9 L1309.6,650.8 L1309.6,650.8 Z" id="Shape" fill="#F4F4F4"></path>
                    <path d="M1309.6,650.8 L1394.5,527.9 L1403,655.7 L1309.6,650.8 L1309.6,650.8 Z" id="Shape" fill="#F9F9F9"></path>
                    <path d="M1309.6,650.8 L1230.5,563.1 L1394.5,527.9 L1309.6,650.8 L1309.6,650.8 Z" id="Shape" fill="#E8E8E8"></path>
                    <path d="M1309.6,650.8 L1190,670.2 L1230.5,563.1 L1309.6,650.8 L1309.6,650.8 Z" id="Shape" fill="#EFEFEF"></path>
                    <path d="M1535.7,154 L1498.1,304.8 L1366,183.7 L1535.7,154 L1535.7,154 Z" id="Shape" fill="#EFEFEF"></path>
                    <path d="M1535.7,154 L1548.4,279.7 L1498.2,304.8 L1535.7,154 L1535.7,154 Z" id="Shape" fill="#F4F4F4"></path>
                    <path d="M1641.4,365.3 L1548.4,450.9 L1494.1,423.8 L1641.4,365.3 L1641.4,365.3 Z" id="Shape" fill="#EFEFEF"></path>
                    <path d="M1641.4,365.3 L1494.1,423.7 L1498.2,304.8 L1641.4,365.3 L1641.4,365.3 Z" id="Shape" fill="#EFEFEF"></path>
                    <path d="M1535.7,576.5 L1403,655.7 L1394.5,527.9 L1535.7,576.5 L1535.7,576.5 Z" id="Shape" fill="#EFEFEF"></path>
                    <path d="M1535.7,576.5 L1484.3,711.1 L1402.9,655.6 L1535.7,576.5 L1535.7,576.5 Z" id="Shape" fill="#FFFFFF"></path>
                    <path d="M1535.7,576.5 L1410.6,493.3 L1494,423.7 L1535.7,576.5 L1535.7,576.5 Z" id="Shape" fill="#F4F4F4"></path>
                    <path d="M1535.7,576.5 L1394.4,527.9 L1410.6,493.3 L1535.7,576.5 L1535.7,576.5 Z" id="Shape" fill="#F4F4F4"></path>
                    <path d="M1484.3,711.2 L1302.4,770.9 L1403,655.7 L1484.3,711.2 L1484.3,711.2 Z" id="Shape" fill="#EDEDED"></path>
                    <path d="M1302.4,770.9 L1484.3,711.2 L1387.2,799.6 L1302.4,770.9 Z" id="Shape" fill="#E8E8E8"></path>
                    <path d="M1681,711.2 L1698.8,557.9 L1604.9,624.1 L1681,711.2 L1681,711.2 Z" id="Shape" fill="#EFEFEF"></path>
                    <path d="M1681,711.2 L1786.3,604.5 L1698.7,557.9 L1681,711.2 L1681,711.2 Z" id="Shape" fill="#EAEAEA"></path>
                    <path d="M1681,711.2 L1811.2,745.6 L1786.4,604.5 L1681,711.2 L1681,711.2 Z" id="Shape" fill="#EBEBEB"></path>
                    <path d="M1681,711.2 L1643,880.1 L1811.2,745.6 L1681,711.2 L1681,711.2 Z" id="Shape" fill="#FFFFFF"></path>
                    <path d="M1681,711.2 L1544.2,763.5 L1643,880.1 L1681,711.2 L1681,711.2 Z" id="Shape" fill="#F4F4F4"></path>
                    <path d="M1604.8,624 L1535.7,576.6 L1544.1,763.6 L1604.8,624 L1604.8,624 Z" id="Shape" fill="#EAEAEA"></path>
                    <path d="M1535.7,576.5 L1683.3,494.7 L1548.3,450.7 L1535.7,576.5 L1535.7,576.5 Z" id="Shape" fill="#F7F7F7"></path>
                    <path d="M1535.7,576.5 L1698.7,557.8 L1683.3,494.7 L1535.7,576.5 L1535.7,576.5 Z" id="Shape" fill="#EBEBEB"></path>
                    <path d="M1535.7,576.5 L1604.8,623.9 L1698.7,557.7 L1535.7,576.5 L1535.7,576.5 Z" id="Shape" fill="#F7F7F7"></path>
                    <path d="M1535.7,576.5 L1548.4,450.8 L1494.1,423.7 L1535.7,576.5 L1535.7,576.5 Z M1783.3,195.3 L1791.1,313 L1641.3,365.3 L1783.3,195.3 L1783.3,195.3 Z" id="Shape" fill="#F4F4F4"></path>
                    <path d="M1641.4,365.3 L1683.4,494.8 L1791.1,313 L1641.4,365.3 L1641.4,365.3 Z" id="Shape" fill="#F2F2F2"></path>
                    <path d="M1641.4,365.3 L1548.4,450.9 L1683.4,494.9 L1641.4,365.3 L1641.4,365.3 Z" id="Shape" fill="#EAEAEA"></path>
                    <path d="M1816.1,880.1 L1811.1,745.6 L1643,880.1 L1816.1,880.1 L1816.1,880.1 Z" id="Shape" fill="#EFEFEF"></path>
                    <path d="M1816.1,880.1 L1966.5,823.3 L1811.1,745.6 L1816.1,880.1 L1816.1,880.1 Z" id="Shape" fill="#E8E8E8"></path>
                    <path d="M1816.1,880.1 L1976.6,898.4 L1966.5,823.2 L1816.1,880.1 L1816.1,880.1 Z" id="Shape" fill="#F7F7F7"></path>
                    <path d="M1921.8,668.8 L1878.6,558.3 L1786.4,604.4 L1921.8,668.8 L1921.8,668.8 Z" id="Shape" fill="#EFEFEF"></path>
                    <path d="M1921.8,668.8 L2103.6,634.2 L1878.6,558.3 L1921.8,668.8 L1921.8,668.8 Z" id="Shape" fill="#F4F4F4"></path>
                    <path d="M1921.8,668.8 L1966.6,823.3 L2103.6,634.3 L1921.8,668.8 L1921.8,668.8 Z" id="Shape" fill="#FFFFFF"></path>
                    <path d="M1921.8,668.8 L1811.2,745.6 L1966.6,823.3 L1921.8,668.8 L1921.8,668.8 Z" id="Shape" fill="#F4F4F4"></path>
                    <path d="M1921.8,668.8 L1786.4,604.5 L1811.2,745.6 L1921.8,668.8 L1921.8,668.8 Z" id="Shape" fill="#F4F4F4"></path>
                    <path d="M1816.1,457.5 L1791.1,313 L1683.3,494.8 L1816.1,457.5 L1816.1,457.5 Z" id="Shape" fill="#EFEFEF"></path>
                    <path d="M1816.1,457.5 L1921.6,378.2 L1791.1,313 L1816.1,457.5 L1816.1,457.5 Z" id="Shape" fill="#F2F2F2"></path>
                    <path d="M1816.1,457.5 L1878.6,558.3 L1921.6,378.2 L1816.1,457.5 L1816.1,457.5 Z" id="Shape" fill="#EBEBEB"></path>
                    <path d="M1816.1,457.5 L1786.3,604.4 L1878.5,558.3 L1816.1,457.5 L1816.1,457.5 Z" id="Shape" fill="#EDEDED"></path>
                    <path d="M1816.1,457.5 L1698.7,557.8 L1786.3,604.4 L1816.1,457.5 L1816.1,457.5 Z" id="Shape" fill="#E8E8E8"></path>
                    <path d="M1816.1,457.5 L1683.4,494.7 L1698.8,557.8 L1816.1,457.5 L1816.1,457.5 Z" id="Shape" fill="#F4F4F4"></path>
                    <path d="M1921.8,246.2 L1959.9,369.3 L1950.8,141.7 L1921.8,246.2 L1921.8,246.2 Z" id="Shape" fill="#F4F4F4"></path>
                    <path d="M1921.8,246.2 L1921.6,378.2 L1959.9,369.3 L1921.8,246.2 L1921.8,246.2 Z" id="Shape" fill="#F4F4F4"></path>
                    <path d="M1921.8,246.2 L1791.1,313 L1921.6,378.2 L1921.8,246.2 L1921.8,246.2 Z" id="Shape" fill="#E8E8E8"></path>
                    <path d="M1921.8,246.2 L1783.4,195.3 L1791.2,313 L1921.8,246.2 L1921.8,246.2 Z" id="Shape" fill="#F4F4F4"></path>
                    <path d="M2127.3,817.8 L2103.5,634.3 L1966.5,823.3 L2127.3,817.8 L2127.3,817.8 Z" id="Shape" fill="#EFEFEF"></path>
                    <path d="M2127.3,817.8 L2131.1,621.6 L2103.5,634.3 L2127.3,817.8 L2127.3,817.8 Z" id="Shape" fill="#F2F2F2"></path>
                    <path d="M2127.3,817.8 L2158,630 L2131.1,621.7 L2127.3,817.8 L2127.3,817.8 Z" id="Shape" fill="#E8E8E8"></path>
                    <path d="M2127.3,817.8 L2239.3,748.4 L2158,629.9 L2127.3,817.8 L2127.3,817.8 Z" id="Shape" fill="#EAEAEA"></path>
                    <path d="M2127.3,817.8 L2165.2,896.4 L2239.3,748.4 L2127.3,817.8 L2127.3,817.8 Z" id="Shape" fill="#F4F4F4"></path>
                    <path d="M2127.3,817.8 L1985,905.2 L2165.2,896.4 L2127.3,817.8 L2127.3,817.8 Z" id="Shape" fill="#F4F4F4"></path>
                    <path d="M2127.3,817.8 L1976.6,898.5 L1985,905.3 L2127.3,817.8 L2127.3,817.8 Z" id="Shape" fill="#EFEFEF"></path>
                    <path d="M2127.3,817.8 L1966.6,823.3 L1976.7,898.5 L2127.3,817.8 L2127.3,817.8 Z" id="Shape" fill="#EFEFEF"></path>
                    <path d="M1979.9,496.6 L1921.6,378.2 L1878.6,558.3 L1979.9,496.6 L1979.9,496.6 Z" id="Shape" fill="#F4F4F4"></path>
                    <path d="M1979.9,496.6 L1959.9,369.3 L1921.6,378.2 L1979.9,496.6 L1979.9,496.6 Z" id="Shape" fill="#EFEFEF"></path>
                    <path d="M1979.9,496.6 L2097.6,399.3 L1959.9,369.3 L1979.9,496.6 L1979.9,496.6 Z" id="Shape" fill="#F2F2F2"></path>
                    <path d="M1979.9,496.6 L2131.1,621.6 L2097.5,399.4 L1979.9,496.6 L1979.9,496.6 Z" id="Shape" fill="#FFFFFF"></path>
                    <path d="M1979.9,496.6 L2103.6,634.2 L2131.2,621.5 L1979.9,496.6 L1979.9,496.6 Z" id="Shape" fill="#F7F7F7"></path>
                    <path d="M1979.9,496.6 L1878.6,558.3 L2103.6,634.2 L1979.9,496.6 L1979.9,496.6 Z" id="Shape" fill="#EFEFEF"></path>
                    <path d="M2031,261.9 L1950.7,141.7 L1959.8,369.3 L2031,261.9 L2031,261.9 Z" id="Shape" fill="#EFEFEF"></path>
                    <path d="M2031,261.9 L2190,301.1 L2180.9,119.4 L2031,261.9 L2031,261.9 Z" id="Shape" fill="#F7F7F7"></path>
                    <path d="M2031,261.9 L2097.5,399.3 L2190,301.1 L2031,261.9 L2031,261.9 Z" id="Shape" fill="#F9F9F9"></path>
                    <path d="M2031,261.9 L1959.8,369.3 L2097.5,399.3 L2031,261.9 L2031,261.9 Z" id="Shape" fill="#EDEDED"></path>
                    <path d="M2231.7,898.4 L2239.3,748.3 L2165.2,896.3 L2231.7,898.4 L2231.7,898.4 Z" id="Shape" fill="#EFEFEF"></path>
                    <path d="M2231.7,898.4 L2351.5,804.4 L2239.4,748.3 L2231.7,898.4 L2231.7,898.4 Z" id="Shape" fill="#E8E8E8"></path>
                    <path d="M2351.4,804.4 L2352.3,824.8 L2231.7,898.4 L2351.4,804.4 Z" id="Shape" fill="#F4F4F4"></path>
                    <path d="M2352.3,824.8 L2282.7,999.9 L2231.7,898.4 L2352.3,824.8 Z" id="Shape" fill="#F4F4F4"></path>
                    <path d="M2231.7,898.4 L2165.3,896.4 L2282.8,999.9 L2231.7,898.4 L2231.7,898.4 Z" id="Shape" fill="#E8E8E8"></path>
                    <path d="M2344.4,668.8 L2305.3,556.3 L2158,629.9 L2344.4,668.8 L2344.4,668.8 Z" id="Shape" fill="#EFEFEF"></path>
                    <path d="M2344.4,668.8 L2418.1,592.5 L2305.4,556.3 L2344.4,668.8 L2344.4,668.8 Z" id="Shape" fill="#F4F4F4"></path>
                    <path d="M2344.4,668.8 L2351.5,804.4 L2418.1,592.5 L2344.4,668.8 L2344.4,668.8 Z" id="Shape" fill="#F4F4F4"></path>
                    <path d="M2344.4,668.8 L2239.4,748.3 L2351.5,804.4 L2344.4,668.8 L2344.4,668.8 Z" id="Shape" fill="#E8E8E8"></path>
                    <path d="M2344.4,668.8 L2158,629.9 L2239.3,748.3 L2344.4,668.8 L2344.4,668.8 Z" id="Shape" fill="#F4F4F4"></path>
                    <path d="M2238.7,457.5 L2190,301.2 L2097.5,399.4 L2238.7,457.5 L2238.7,457.5 Z" id="Shape" fill="#EFEFEF"></path>
                    <path d="M2238.7,457.5 L2338.5,375.3 L2190,301.2 L2238.7,457.5 L2238.7,457.5 Z" id="Shape" fill="#EFEFEF"></path>
                    <path d="M2238.7,457.5 L2305.3,556.3 L2338.5,375.4 L2238.7,457.5 L2238.7,457.5 Z" id="Shape" fill="#FFFFFF"></path>
                    <path d="M2238.7,457.5 L2158,629.9 L2305.2,556.3 L2238.7,457.5 L2238.7,457.5 Z" id="Shape" fill="#FFFFFF"></path>
                    <path d="M2238.7,457.5 L2131.1,621.6 L2158,629.9 L2238.7,457.5 L2238.7,457.5 Z" id="Shape" fill="#EFEFEF"></path>
                    <path d="M2238.7,457.5 L2097.5,399.3 L2131.1,621.5 L2238.7,457.5 L2238.7,457.5 Z" id="Shape" fill="#F4F4F4"></path>
                    <path d="M2344.4,246.2 L2359.7,370.2 L2415.4,204.8 L2344.4,246.2 L2344.4,246.2 Z" id="Shape" fill="#F1F1F1"></path>
                    <path d="M2344.4,246.2 L2338.6,375.3 L2359.7,370.2 L2344.4,246.2 L2344.4,246.2 Z" id="Shape" fill="#E8E8E8"></path>
                    <path d="M2344.4,246.2 L2190,301.2 L2338.5,375.4 L2344.4,246.2 L2344.4,246.2 Z" id="Shape" fill="#F7F7F7"></path>
                    <path d="M2190,301.2 L2180.9,119.5 L2344.3,246.3 L2190,301.2 L2190,301.2 Z" id="Shape" fill="#EFEFEF"></path>
                    <path d="M2361.7,889.6 L2352.3,824.8 L2282.7,999.8 L2361.7,889.6 L2361.7,889.6 Z" id="Shape" fill="#EFEFEF"></path>
                    <path d="M2361.7,889.6 L2514.1,830.8 L2352.3,824.9 L2361.7,889.6 L2361.7,889.6 Z" id="Shape" fill="#F4F4F4"></path>
                    <path d="M2361.7,889.6 L2472.3,945.8 L2514.1,830.7 L2361.7,889.6 L2361.7,889.6 Z" id="Shape" fill="#F4F4F4"></path>
                    <path d="M2434.8,697.3 L2418,592.5 L2351.4,804.4 L2434.8,697.3 L2434.8,697.3 Z" id="Shape" fill="#EFEFEF"></path>
                    <path d="M2434.8,697.3 L2543.6,573.3 L2418,592.5 L2434.8,697.3 L2434.8,697.3 Z" id="Shape" fill="#F2F2F2"></path>
                    <path d="M2434.8,697.3 L2595.7,622.4 L2543.7,573.2 L2434.8,697.3 L2434.8,697.3 Z" id="Shape" fill="#EBEBEB"></path>
                    <path d="M2434.8,697.3 L2604,719.5 L2595.7,622.5 L2434.8,697.3 L2434.8,697.3 Z" id="Shape" fill="#F9F9F9"></path>
                    <path d="M2434.8,697.3 L2514.1,830.8 L2604,719.5 L2434.8,697.3 L2434.8,697.3 Z" id="Shape" fill="#F1F1F1"></path>
                    <path d="M2434.8,697.3 L2352.3,824.9 L2514.1,830.8 L2434.8,697.3 L2434.8,697.3 Z" id="Shape" fill="#E8E8E8"></path>
                    <path d="M2434.8,697.3 L2351.4,804.5 L2352.2,824.9 L2434.8,697.3 L2434.8,697.3 Z" id="Shape" fill="#EFEFEF"></path>
                    <path d="M2402.6,487.6 L2338.5,375.3 L2305.3,556.2 L2402.6,487.6 L2402.6,487.6 Z" id="Shape" fill="#F4F4F4"></path>
                    <path d="M2402.6,487.6 L2359.6,370.2 L2338.5,375.3 L2402.6,487.6 L2402.6,487.6 Z" id="Shape" fill="#EFEFEF"></path>
                    <path d="M2402.6,487.6 L2529.6,452.2 L2359.7,370.3 L2402.6,487.6 L2402.6,487.6 Z" id="Shape" fill="#F4F4F4"></path>
                    <path d="M2402.6,487.6 L2543.7,573.2 L2529.6,452.2 L2402.6,487.6 L2402.6,487.6 Z" id="Shape" fill="#EFEFEF"></path>
                    <path d="M2402.6,487.6 L2418,592.5 L2543.6,573.2 L2402.6,487.6 L2402.6,487.6 Z" id="Shape" fill="#F2F2F2"></path>
                    <path d="M2402.6,487.6 L2305.3,556.3 L2418,592.5 L2402.6,487.6 L2402.6,487.6 Z" id="Shape" fill="#E8E8E8"></path>
                    <path d="M2478.2,330.8 L2415.3,204.9 L2359.6,370.3 L2478.2,330.8 L2478.2,330.8 Z" id="Shape" fill="#F4F4F4"></path>
                    <path d="M2478.2,330.8 L2628.6,309.1 L2543.6,247.5 L2478.2,330.8 L2478.2,330.8 Z" id="Shape" fill="#EAEAEA"></path>
                    <path d="M2478.2,330.8 L2529.6,452.2 L2628.6,309.1 L2478.2,330.8 L2478.2,330.8 Z" id="Shape" fill="#F7F7F7"></path>
                    <path d="M2478.2,330.8 L2359.6,370.3 L2529.5,452.2 L2478.2,330.8 L2478.2,330.8 Z" id="Shape" fill="#F4F4F4"></path>
                    <path d="M2661.3,880.1 L2604,719.4 L2514.1,830.7 L2661.3,880.1 L2661.3,880.1 Z" id="Shape" fill="#EFEFEF"></path>
                    <path d="M2661.3,880.1 L2760,797.4 L2604,719.4 L2661.3,880.1 L2661.3,880.1 Z" id="Shape" fill="#EFEFEF"></path>
                    <path d="M2661.3,880.1 L2729.9,931 L2760,797.4 L2661.3,880.1 L2661.3,880.1 Z" id="Shape" fill="#E8E8E8"></path>
                    <path d="M2661.3,880.1 L2514.1,830.7 L2472.3,945.8 L2661.3,880.1 L2661.3,880.1 Z" id="Shape" fill="#FFFFFF"></path>
                    <path d="M2766.9,668.8 L2695.2,572.6 L2595.6,622.4 L2766.9,668.8 L2766.9,668.8 Z" id="Shape" fill="#EFEFEF"></path>
                    <path d="M2766.9,668.8 L2834.8,650.7 L2695.2,572.6 L2766.9,668.8 L2766.9,668.8 Z" id="Shape" fill="#EFEFEF"></path>
                    <path d="M2766.9,668.8 L2823.7,799.2 L2834.8,650.7 L2766.9,668.8 L2766.9,668.8 Z" id="Shape" fill="#EDEDED"></path>
                    <path d="M2766.9,668.8 L2760,797.4 L2823.8,799.3 L2766.9,668.8 L2766.9,668.8 Z" id="Shape" fill="#F4F4F4"></path>
                    <path d="M2766.9,668.8 L2604,719.4 L2760,797.4 L2766.9,668.8 L2766.9,668.8 Z" id="Shape" fill="#F7F7F7"></path>
                    <path d="M2766.9,668.8 L2595.6,622.4 L2603.9,719.4 L2766.9,668.8 L2766.9,668.8 Z" id="Shape" fill="#EFEFEF"></path>
                    <path d="M2661.3,457.5 L2628.6,309.1 L2529.6,452.2 L2661.3,457.5 L2661.3,457.5 Z" id="Shape" fill="#F4F4F4"></path>
                    <path d="M2661.3,457.5 L2738.1,363.9 L2628.6,309.1 L2661.3,457.5 L2661.3,457.5 Z" id="Shape" fill="#FFFFFF"></path>
                    <path d="M2661.3,457.5 L2778.6,470.9 L2738.1,363.8 L2661.3,457.5 L2661.3,457.5 Z" id="Shape" fill="#F4F4F4"></path>
                    <path d="M2661.3,457.5 L2695.3,572.6 L2778.7,471 L2661.3,457.5 L2661.3,457.5 Z" id="Shape" fill="#F4F4F4"></path>
                    <path d="M2661.3,457.5 L2595.7,622.4 L2695.3,572.6 L2661.3,457.5 L2661.3,457.5 Z" id="Shape" fill="#EAEAEA"></path>
                    <path d="M2661.3,457.5 L2543.7,573.2 L2595.7,622.4 L2661.3,457.5 L2661.3,457.5 Z" id="Shape" fill="#EFEFEF"></path>
                    <path d="M2661.3,457.5 L2529.6,452.2 L2543.7,573.2 L2661.3,457.5 L2661.3,457.5 Z" id="Shape" fill="#F4F4F4"></path>
                    <path d="M2896.8,219.8 L2738.1,363.9 L2766.9,246.2 L2896.8,219.8 Z" id="Shape" fill="#E8E8E8"></path>
                    <path d="M2766.9,246.2 L2628.6,309.1 L2738.1,363.9 L2766.9,246.2 L2766.9,246.2 Z" id="Shape" fill="#E8E8E8"></path>
                    <path d="M2766.9,246.2 L2543.6,247.5 L2628.6,309.1 L2766.9,246.2 L2766.9,246.2 Z" id="Shape" fill="#EFEFEF"></path>
                    <path d="M2802.9,845.7 L2760,797.5 L2729.9,931 L2802.9,845.7 L2802.9,845.7 Z" id="Shape" fill="#F4F4F4"></path>
                    <path d="M2802.9,845.7 L2823.8,799.3 L2760,797.4 L2802.9,845.7 L2802.9,845.7 Z" id="Shape" fill="#E8E8E8"></path>
                    <path d="M2802.9,845.7 L2914.2,850.4 L2823.8,799.3 L2802.9,845.7 L2802.9,845.7 Z" id="Shape" fill="#EDEDED"></path>
                    <path d="M2899.3,678.7 L2834.8,650.7 L2823.7,799.2 L2899.3,678.7 L2899.3,678.7 Z" id="Shape" fill="#EFEFEF"></path>
                    <path d="M2899.3,678.7 L2958.8,540.8 L2834.8,650.8 L2899.3,678.7 L2899.3,678.7 Z" id="Shape" fill="#EFEFEF"></path>
                    <path d="M2899.3,678.7 L3042.2,610.4 L2958.8,540.8 L2899.3,678.7 L2899.3,678.7 Z" id="Shape" fill="#EDEDED"></path>
                    <path d="M3042.3,610.4 L3046.3,729.3 L2899.3,678.7 L3042.3,610.4 Z" id="Shape" fill="#F7F7F7"></path>
                    <path d="M3046.3,729.3 L2914.2,850.4 L2899.3,678.7 L3046.3,729.3 Z" id="Shape" fill="#FFFFFF"></path>
                    <path d="M2899.3,678.7 L2823.7,799.2 L2914.1,850.3 L2899.3,678.7 L2899.3,678.7 Z" id="Shape" fill="#E8E8E8"></path>
                    <path d="M2814.8,583.4 L2778.6,471 L2695.2,572.6 L2814.8,583.4 L2814.8,583.4 Z" id="Shape" fill="#F4F4F4"></path>
                    <path d="M2814.8,583.4 L2942.7,506.2 L2778.7,471 L2814.8,583.4 L2814.8,583.4 Z" id="Shape" fill="#E8E8E8"></path>
                    <path d="M2814.8,583.4 L2958.9,540.8 L2942.7,506.2 L2814.8,583.4 L2814.8,583.4 Z" id="Shape" fill="#EFEFEF"></path>
                    <path d="M2814.8,583.4 L2834.9,650.7 L2958.9,540.7 L2814.8,583.4 L2814.8,583.4 Z" id="Shape" fill="#F7F7F7"></path>
                    <path d="M2814.8,583.4 L2695.3,572.6 L2834.9,650.7 L2814.8,583.4 L2814.8,583.4 Z" id="Shape" fill="#EAEAEA"></path>
                    <path d="M2857.7,383.3 L2896.8,219.9 L2738.1,363.9 L2857.7,383.3 L2857.7,383.3 Z" id="Shape" fill="#F4F4F4"></path>
                    <path d="M2857.7,383.3 L3013.5,290.3 L2896.8,219.8 L2857.7,383.3 L2857.7,383.3 Z" id="Shape" fill="#F4F4F4"></path>
                    <path d="M2857.7,383.3 L2942.6,506.2 L3013.5,290.3 L2857.7,383.3 L2857.7,383.3 Z" id="Shape" fill="#F9F9F9"></path>
                    <path d="M2857.7,383.3 L2778.6,471 L2942.6,506.2 L2857.7,383.3 L2857.7,383.3 Z" id="Shape" fill="#E8E8E8"></path>
                    <path d="M2857.7,383.3 L2738.1,363.9 L2778.6,471 L2857.7,383.3 L2857.7,383.3 Z" id="Shape" fill="#EFEFEF"></path>
                    <path d="M3048.8,828.4 L3046.3,729.3 L2914.1,850.4 L3048.8,828.4 L3048.8,828.4 Z" id="Shape" fill="#EFEFEF"></path>
                    <path d="M3048.8,828.4 L2914.1,850.4 L3056,932.2 L3048.8,828.4 L3048.8,828.4 Z" id="Shape" fill="#F4F4F4"></path>
                    <path d="M3083.9,457.5 L3013.5,290.3 L2942.6,506.2 L3083.9,457.5 L3083.9,457.5 Z" id="Shape" fill="#EFEFEF"></path>
                    <path d="M3083.9,457.5 L2942.6,506.1 L2958.8,540.7 L3083.9,457.5 L3083.9,457.5 Z" id="Shape" fill="#F4F4F4"></path>
                    <path d="M2984.1,190.7 L2896.8,219.8 L3013.5,290.3 L2984.1,190.7 L2984.1,190.7 Z" id="Shape" fill="#C3C3C3"></path>
                    <path d="M1544.2,763.5 L1681,711.2 L1604.8,624 L1544.2,763.5 L1544.2,763.5 Z" id="Shape" fill="#EFEFEF"></path>
                    <path d="M1628,1264.6 L1610.2,1111.3 L1729.5,1273.1 L1628,1264.6 L1628,1264.6 Z" id="Shape" fill="#EFEFEF"></path>
                    <path d="M1628,1264.6 L1522.7,1157.9 L1610.3,1111.3 L1628,1264.6 L1628,1264.6 Z" id="Shape" fill="#EAEAEA"></path>
                    <path d="M1628,1264.6 L1497.8,1299 L1522.6,1157.9 L1628,1264.6 L1628,1264.6 Z" id="Shape" fill="#EBEBEB"></path>
                    <path d="M1628,1264.6 L1664.4,1398.4 L1497.9,1299 L1628,1264.6 L1628,1264.6 Z" id="Shape" fill="#F7F7F7"></path>
                    <path d="M1628,1264.6 L1736.7,1371.2 L1664.4,1398.4 L1628,1264.6 L1628,1264.6 Z" id="Shape" fill="#E8E8E8"></path>
                    <path d="M1628,1264.6 L1729.6,1273.1 L1736.7,1371.2 L1628,1264.6 L1628,1264.6 Z" id="Shape" fill="#F4F4F4"></path>
                    <path d="M1711.3,1134.9 L1594.9,1024 L1698.7,1027.2 L1711.3,1134.9 L1711.3,1134.9 Z" id="Shape" fill="#F4F4F4"></path>
                    <path d="M1711.3,1134.9 L1610.2,1111.2 L1594.9,1024 L1711.3,1134.9 L1711.3,1134.9 Z" id="Shape" fill="#F2F2F2"></path>
                    <path d="M1711.3,1134.9 L1729.5,1273.1 L1610.2,1111.3 L1711.3,1134.9 L1711.3,1134.9 Z" id="Shape" fill="#F7F7F7"></path>
                    <path d="M1584.3,916.4 L1517.8,866.4 L1544.2,763.5 L1584.3,916.4 Z" id="Shape" fill="#F4F4F4"></path>
                    <path d="M1584.3,916.4 L1594.9,1024 L1517.8,866.4 L1584.3,916.4 L1584.3,916.4 Z" id="Shape" fill="#F4F4F4"></path>
                    <path d="M1584.3,916.4 L1698.7,1027.3 L1594.9,1024.1 L1584.3,916.4 L1584.3,916.4 Z" id="Shape" fill="#EBEBEB"></path>
                    <path d="M1584.3,916.4 L1689.3,932.7 L1698.8,1027.3 L1584.3,916.4 Z" id="Shape" fill="#F4F4F4"></path>
                    <path d="M1584.3,916.4 L1544.2,763.5 L1643,880.1 L1584.3,916.4 Z" id="Shape" fill="#FFFFFF"></path>
                    <path d="M1492.9,1433.5 L1497.9,1299 L1664.4,1398.4 L1492.9,1433.5 L1492.9,1433.5 Z" id="Shape" fill="#F2F2F2"></path>
                    <path d="M1492.9,1433.5 L1342.5,1376.7 L1497.9,1299 L1492.9,1433.5 L1492.9,1433.5 Z" id="Shape" fill="#EBEBEB"></path>
                    <path d="M1492.9,1433.5 L1332.4,1426.9 L1342.5,1376.6 L1492.9,1433.5 L1492.9,1433.5 Z" id="Shape" fill="#F7F7F7"></path>
                    <path d="M1387.2,1222.2 L1430.4,1111.7 L1522.6,1157.8 L1387.2,1222.2 L1387.2,1222.2 Z" id="Shape" fill="#EFEFEF"></path>
                    <path d="M1387.2,1222.2 L1205.4,1187.6 L1430.4,1111.7 L1387.2,1222.2 L1387.2,1222.2 Z" id="Shape" fill="#F4F4F4"></path>
                    <path d="M1387.2,1222.2 L1342.4,1376.7 L1205.4,1187.7 L1387.2,1222.2 L1387.2,1222.2 Z" id="Shape" fill="#F2F2F2"></path>
                    <path d="M1387.2,1222.2 L1497.8,1299 L1342.4,1376.7 L1387.2,1222.2 L1387.2,1222.2 Z" id="Shape" fill="#FFFFFF"></path>
                    <path d="M1387.2,1222.2 L1522.6,1157.9 L1497.8,1299 L1387.2,1222.2 L1387.2,1222.2 Z" id="Shape" fill="#F4F4F4"></path>
                    <path d="M1492.9,1010.9 L1517.9,866.4 L1595,1024 L1492.9,1010.9 L1492.9,1010.9 Z" id="Shape" fill="#EBEBEB"></path>
                    <path d="M1492.9,1010.9 L1387.4,931.6 L1517.9,866.4 L1492.9,1010.9 L1492.9,1010.9 Z" id="Shape" fill="#F2F2F2"></path>
                    <path d="M1492.9,1010.9 L1430.4,1111.7 L1387.4,931.6 L1492.9,1010.9 L1492.9,1010.9 Z" id="Shape" fill="#EBEBEB"></path>
                    <path d="M1492.9,1010.9 L1522.7,1157.8 L1430.5,1111.7 L1492.9,1010.9 L1492.9,1010.9 Z" id="Shape" fill="#FFFFFF"></path>
                    <path d="M1492.9,1010.9 L1610.3,1111.2 L1522.7,1157.8 L1492.9,1010.9 L1492.9,1010.9 Z" id="Shape" fill="#E8E8E8"></path>
                    <path d="M1492.9,1010.9 L1595,1024 L1610.3,1111.2 L1492.9,1010.9 L1492.9,1010.9 Z" id="Shape" fill="#F4F4F4"></path>
                    <path d="M1387.2,799.6 L1349.1,922.7 L1302.4,770.9 L1387.2,799.6 L1387.2,799.6 Z" id="Shape" fill="#F4F4F4"></path>
                    <path d="M1387.2,799.6 L1387.4,931.6 L1349.1,922.7 L1387.2,799.6 L1387.2,799.6 Z" id="Shape" fill="#F4F4F4"></path>
                    <path d="M1387.2,799.6 L1517.8,866.3 L1387.3,931.5 L1387.2,799.6 L1387.2,799.6 Z" id="Shape" fill="#E8E8E8"></path>
                    <path d="M1387.2,799.6 L1544.2,763.5 L1517.9,866.4 L1387.2,799.6 L1387.2,799.6 Z" id="Shape" fill="#F4F4F4"></path>
                    <path d="M1181.7,1371.2 L1205.5,1187.7 L1342.5,1376.7 L1181.7,1371.2 L1181.7,1371.2 Z" id="Shape" fill="#EFEFEF"></path>
                    <path d="M1181.7,1371.2 L1177.9,1175 L1205.5,1187.7 L1181.7,1371.2 L1181.7,1371.2 Z" id="Shape" fill="#F2F2F2"></path>
                    <path d="M1181.7,1371.2 L1151,1183.4 L1177.9,1175.1 L1181.7,1371.2 L1181.7,1371.2 Z" id="Shape" fill="#E8E8E8"></path>
                    <path d="M1181.7,1371.2 L1069.7,1301.8 L1151,1183.4 L1181.7,1371.2 L1181.7,1371.2 Z" id="Shape" fill="#EAEAEA"></path>
                    <path d="M1181.7,1371.2 L1143.5,1433.6 L1069.7,1301.8 L1181.7,1371.2 L1181.7,1371.2 Z" id="Shape" fill="#F7F7F7"></path>
                    <path d="M1181.7,1371.2 L1273.8,1437.5 L1143.5,1433.6 L1181.7,1371.2 L1181.7,1371.2 Z" id="Shape" fill="#F4F4F4"></path>
                    <path d="M1181.7,1371.2 L1332.4,1427 L1273.8,1437.5 L1181.7,1371.2 L1181.7,1371.2 Z" id="Shape" fill="#F4F4F4"></path>
                    <path d="M1181.7,1371.2 L1342.4,1376.7 L1332.3,1427 L1181.7,1371.2 L1181.7,1371.2 Z" id="Shape" fill="#EFEFEF"></path>
                    <path d="M1329.1,1050 L1387.4,931.6 L1430.4,1111.7 L1329.1,1050 L1329.1,1050 Z" id="Shape" fill="#F4F4F4"></path>
                    <path d="M1329.1,1050 L1349.1,922.7 L1387.4,931.6 L1329.1,1050 L1329.1,1050 Z" id="Shape" fill="#EFEFEF"></path>
                    <path d="M1329.1,1050 L1211.4,952.7 L1349.1,922.7 L1329.1,1050 L1329.1,1050 Z" id="Shape" fill="#F2F2F2"></path>
                    <path d="M1329.1,1050 L1177.9,1175 L1211.5,952.8 L1329.1,1050 L1329.1,1050 Z" id="Shape" fill="#FFFFFF"></path>
                    <path d="M1329.1,1050 L1205.4,1187.7 L1177.9,1175 L1329.1,1050 L1329.1,1050 Z" id="Shape" fill="#F7F7F7"></path>
                    <path d="M1329.1,1050 L1430.4,1111.7 L1205.4,1187.6 L1329.1,1050 L1329.1,1050 Z" id="Shape" fill="#EFEFEF"></path>
                    <path d="M1228.2,843.7 L1302.4,770.9 L1349.1,922.7 L1228.2,843.7 L1228.2,843.7 Z" id="Shape" fill="#EFEFEF"></path>
                    <path d="M1228.2,843.7 L1118.9,854.6 L1218.8,787.9 L1228.2,843.7 L1228.2,843.7 Z" id="Shape" fill="#EDEDED"></path>
                    <path d="M1228.2,843.7 L1211.4,952.8 L1118.9,854.6 L1228.2,843.7 L1228.2,843.7 Z" id="Shape" fill="#F9F9F9"></path>
                    <path d="M1228.2,843.7 L1349.1,922.7 L1211.4,952.7 L1228.2,843.7 L1228.2,843.7 Z" id="Shape" fill="#EDEDED"></path>
                    <path d="M1014.2,1438.4 L1069.7,1301.8 L1143.5,1433.6 L1014.2,1438.4 L1014.2,1438.4 Z" id="Shape" fill="#EFEFEF"></path>
                    <path d="M1014.2,1438.4 L951.9,1347.4 L1069.7,1301.8 L1014.2,1438.4 L1014.2,1438.4 Z" id="Shape" fill="#EAEAEA"></path>
                    <path d="M1014.2,1438.4 L898.9,1355.8 L951.8,1347.4 L1014.2,1438.4 Z" id="Shape" fill="#E8E8E8"></path>
                    <path d="M1014.2,1438.4 L884.2,1495.2 L898.9,1355.8 L1014.2,1438.4 Z" id="Shape" fill="#FFFFFF"></path>
                    <path d="M964.6,1222.2 L1003.7,1109.7 L1150.9,1183.3 L964.6,1222.2 L964.6,1222.2 Z" id="Shape" fill="#EFEFEF"></path>
                    <path d="M964.6,1222.2 L891,1145.9 L1003.7,1109.7 L964.6,1222.2 L964.6,1222.2 Z" id="Shape" fill="#F4F4F4"></path>
                    <path d="M964.6,1222.2 L951.8,1347.4 L891,1145.9 L964.6,1222.2 L964.6,1222.2 Z" id="Shape" fill="#EFEFEF"></path>
                    <path d="M964.6,1222.2 L1069.6,1301.7 L951.8,1347.3 L964.6,1222.2 L964.6,1222.2 Z" id="Shape" fill="#F4F4F4"></path>
                    <path d="M964.6,1222.2 L1150.9,1183.3 L1069.6,1301.7 L964.6,1222.2 L964.6,1222.2 Z" id="Shape" fill="#F4F4F4"></path>
                    <path d="M1070.3,1010.9 L1119,854.5 L1211.5,952.7 L1070.3,1010.9 L1070.3,1010.9 Z" id="Shape" fill="#EFEFEF"></path>
                    <path d="M1070.3,1010.9 L970.5,928.7 L1119,854.5 L1070.3,1010.9 L1070.3,1010.9 Z" id="Shape" fill="#EFEFEF"></path>
                    <path d="M1070.3,1010.9 L1003.7,1109.7 L970.5,928.8 L1070.3,1010.9 L1070.3,1010.9 Z" id="Shape" fill="#EAEAEA"></path>
                    <path d="M1070.3,1010.9 L1151,1183.3 L1003.8,1109.7 L1070.3,1010.9 L1070.3,1010.9 Z" id="Shape" fill="#EDEDED"></path>
                    <path d="M1070.3,1010.9 L1177.9,1175 L1151,1183.3 L1070.3,1010.9 L1070.3,1010.9 Z" id="Shape" fill="#EFEFEF"></path>
                    <path d="M1070.3,1010.9 L1211.5,952.7 L1177.9,1175 L1070.3,1010.9 L1070.3,1010.9 Z" id="Shape" fill="#F4F4F4"></path>
                    <path d="M902.3,819.4 L970.4,928.8 L949.3,923.7 L902.3,819.4 L902.3,819.4 Z" id="Shape" fill="#F4F4F4"></path>
                    <path d="M1005.3,789.7 L1119,854.6 L970.5,928.8 L1005.3,789.7 L1005.3,789.7 Z" id="Shape" fill="#FFFFFF"></path>
                    <path d="M856,1436.5 L898.9,1355.8 L884.2,1495.2 L856,1436.5 L856,1436.5 Z" id="Shape" fill="#EFEFEF"></path>
                    <path d="M856,1436.5 L794.9,1384.1 L898.9,1355.7 L856,1436.5 L856,1436.5 Z" id="Shape" fill="#F4F4F4"></path>
                    <path d="M856,1436.5 L783.9,1433.5 L794.9,1384.1 L856,1436.5 L856,1436.5 Z" id="Shape" fill="#F7F7F7"></path>
                    <path d="M1689.3,932.7 L1816.1,880.1 L1643,880.1 L1689.3,932.7 L1689.3,932.7 Z" id="Shape" fill="#EAEAEA"></path>
                    <path d="M874.2,1250.7 L891,1145.9 L951.9,1347.4 L874.2,1250.7 L874.2,1250.7 Z" id="Shape" fill="#EFEFEF"></path>
                    <path d="M874.2,1250.7 L765.4,1126.7 L891,1145.9 L874.2,1250.7 L874.2,1250.7 Z" id="Shape" fill="#F2F2F2"></path>
                    <path d="M874.2,1250.7 L713.3,1175.8 L765.3,1126.6 L874.2,1250.7 L874.2,1250.7 Z" id="Shape" fill="#EBEBEB"></path>
                    <path d="M874.2,1250.7 L705,1272.8 L713.3,1175.8 L874.2,1250.7 L874.2,1250.7 Z" id="Shape" fill="#F9F9F9"></path>
                    <path d="M874.2,1250.7 L794.9,1384.2 L705,1272.8 L874.2,1250.7 L874.2,1250.7 Z" id="Shape" fill="#F1F1F1"></path>
                    <path d="M874.2,1250.7 L898.9,1355.8 L794.9,1384.2 L874.2,1250.7 L874.2,1250.7 Z" id="Shape" fill="#E8E8E8"></path>
                    <path d="M874.2,1250.7 L951.9,1347.4 L899,1355.8 L874.2,1250.7 L874.2,1250.7 Z" id="Shape" fill="#F4F4F4"></path>
                    <path d="M906.4,1041 L970.5,928.7 L1003.7,1109.6 L906.4,1041 L906.4,1041 Z" id="Shape" fill="#F4F4F4"></path>
                    <path d="M906.4,1041 L949.4,923.6 L970.5,928.7 L906.4,1041 L906.4,1041 Z" id="Shape" fill="#EFEFEF"></path>
                    <path d="M906.4,1041 L779.4,1005.6 L949.3,923.7 L906.4,1041 L906.4,1041 Z" id="Shape" fill="#F4F4F4"></path>
                    <path d="M906.4,1041 L765.3,1126.6 L779.4,1005.6 L906.4,1041 L906.4,1041 Z" id="Shape" fill="#FFFFFF"></path>
                    <path d="M906.4,1041 L891,1145.9 L765.4,1126.6 L906.4,1041 L906.4,1041 Z" id="Shape" fill="#F5F5F5"></path>
                    <path d="M906.4,1041 L1003.7,1109.7 L891,1145.9 L906.4,1041 L906.4,1041 Z" id="Shape" fill="#E8E8E8"></path>
                    <path d="M798.1,827.4 L902.3,819.4 L949.3,923.7 L798.1,827.4 L798.1,827.4 Z" id="Shape" fill="#EFEFEF"></path>
                    <path d="M798.1,827.4 L680.4,862.5 L726.5,780.5 L798.1,827.4 L798.1,827.4 Z" id="Shape" fill="#EAEAEA"></path>
                    <path d="M830.8,884.2 L779.4,1005.6 L680.4,862.5 L830.8,884.2 L830.8,884.2 Z" id="Shape" fill="#F7F7F7"></path>
                    <path d="M830.8,884.2 L949.4,923.7 L779.5,1005.6 L830.8,884.2 L830.8,884.2 Z" id="Shape" fill="#F4F4F4"></path>
                    <path d="M688.3,1392.2 L705,1272.8 L794.9,1384.1 L688.3,1392.2 L688.3,1392.2 Z" id="Shape" fill="#E8E8E8"></path>
                    <path d="M688.3,1392.2 L549,1350.8 L705,1272.8 L688.3,1392.2 L688.3,1392.2 Z" id="Shape" fill="#EFEFEF"></path>
                    <path d="M688.3,1392.2 L587.8,1433.6 L549,1350.9 L688.3,1392.2 L688.3,1392.2 Z" id="Shape" fill="#EAEAEA"></path>
                    <path id="Shape" fill="#EDEDED" d="M688.3,1392.2 L824.5,1392.2 L628.4,1392.2 L688.3,1392.2 L688.3,1392.2 Z"></path>
                    <path d="M688.3,1392.2 L794.9,1384.2 L783.9,1433.6 L688.3,1392.2 L688.3,1392.2 Z" id="Shape" fill="#F4F4F4"></path>
                    <path d="M542.1,1222.2 L613.8,1126 L713.4,1175.8 L542.1,1222.2 L542.1,1222.2 Z" id="Shape" fill="#EFEFEF"></path>
                    <path d="M542.1,1222.2 L474.2,1204.1 L613.7,1126 L542.1,1222.2 L542.1,1222.2 Z" id="Shape" fill="#FFFFFF"></path>
                    <path d="M542.1,1222.2 L485.3,1352.6 L474.2,1204.1 L542.1,1222.2 L542.1,1222.2 Z" id="Shape" fill="#EDEDED"></path>
                    <path d="M542.1,1222.2 L549,1350.8 L485.2,1352.7 L542.1,1222.2 L542.1,1222.2 Z" id="Shape" fill="#F4F4F4"></path>
                    <path d="M542.1,1222.2 L705,1272.8 L549,1350.8 L542.1,1222.2 L542.1,1222.2 Z" id="Shape" fill="#F7F7F7"></path>
                    <path d="M542.1,1222.2 L713.4,1175.8 L705.1,1272.8 L542.1,1222.2 L542.1,1222.2 Z" id="Shape" fill="#EFEFEF"></path>
                    <path d="M647.7,1010.9 L680.4,862.5 L779.4,1005.6 L647.7,1010.9 L647.7,1010.9 Z" id="Shape" fill="#F4F4F4"></path>
                    <path d="M647.7,1010.9 L570.9,917.3 L680.4,862.5 L647.7,1010.9 L647.7,1010.9 Z" id="Shape" fill="#E8E8E8"></path>
                    <path d="M647.7,1010.9 L530.4,1024.3 L570.9,917.2 L647.7,1010.9 L647.7,1010.9 Z" id="Shape" fill="#F4F4F4"></path>
                    <path d="M647.7,1010.9 L613.7,1126 L530.3,1024.4 L647.7,1010.9 L647.7,1010.9 Z" id="Shape" fill="#F4F4F4"></path>
                    <path d="M647.7,1010.9 L713.3,1175.8 L613.7,1126 L647.7,1010.9 L647.7,1010.9 Z" id="Shape" fill="#EAEAEA"></path>
                    <path d="M647.7,1010.9 L765.3,1126.6 L713.3,1175.8 L647.7,1010.9 L647.7,1010.9 Z" id="Shape" fill="#EFEFEF"></path>
                    <path d="M647.7,1010.9 L779.4,1005.6 L765.3,1126.6 L647.7,1010.9 L647.7,1010.9 Z" id="Shape" fill="#F4F4F4"></path>
                    <path d="M549.4,808.9 L415.8,821.7 L482.9,772.2 L549.4,808.9 Z" id="Shape" fill="#F4F4F4"></path>
                    <path d="M549.4,808.9 L570.9,917.3 L415.8,821.7 L549.4,808.9 Z" id="Shape" fill="#FFFFFF"></path>
                    <path d="M549.4,808.9 L680.4,862.6 L570.9,917.4 L549.4,808.9 L549.4,808.9 Z" id="Shape" fill="#E8E8E8"></path>
                    <path d="M549.4,808.9 L726.4,780.5 L680.3,862.5 L549.4,808.9 L549.4,808.9 Z" id="Shape" fill="#EFEFEF"></path>
                    <path d="M464,1462.2 L549,1350.8 L587.8,1433.5 L464,1462.2 L464,1462.2 Z" id="Shape" fill="#FFFFFF"></path>
                    <path d="M464,1462.2 L485.2,1352.6 L549,1350.7 L464,1462.2 L464,1462.2 Z" id="Shape" fill="#F4F4F4"></path>
                    <path d="M464,1462.2 L394.8,1403.8 L485.2,1352.7 L464,1462.2 L464,1462.2 Z" id="Shape" fill="#E8E8E8"></path>
                    <path d="M409.7,1232.1 L474.2,1204.1 L485.3,1352.6 L409.7,1232.1 L409.7,1232.1 Z" id="Shape" fill="#EFEFEF"></path>
                    <path d="M409.7,1232.1 L350.2,1094.2 L474.2,1204.2 L409.7,1232.1 L409.7,1232.1 Z" id="Shape" fill="#EFEFEF"></path>
                    <path d="M409.7,1232.1 L266.7,1163.8 L350.1,1094.2 L409.7,1232.1 L409.7,1232.1 Z" id="Shape" fill="#EDEDED"></path>
                    <path d="M409.7,1232.1 L262.7,1282.7 L266.7,1163.8 L409.7,1232.1 Z" id="Shape" fill="#EFEFEF"></path>
                    <path d="M409.7,1232.1 L394.8,1403.8 L262.7,1282.7 L409.7,1232.1 Z" id="Shape" fill="#F7F7F7"></path>
                    <path d="M409.7,1232.1 L485.3,1352.6 L394.9,1403.7 L409.7,1232.1 L409.7,1232.1 Z" id="Shape" fill="#FFFFFF"></path>
                    <path d="M494.2,1136.8 L530.3,1024.4 L613.7,1126 L494.2,1136.8 L494.2,1136.8 Z" id="Shape" fill="#F4F4F4"></path>
                    <path d="M494.2,1136.8 L366.4,1059.6 L530.4,1024.4 L494.2,1136.8 L494.2,1136.8 Z" id="Shape" fill="#E8E8E8"></path>
                    <path d="M494.2,1136.8 L350.2,1094.2 L366.4,1059.6 L494.2,1136.8 L494.2,1136.8 Z" id="Shape" fill="#EFEFEF"></path>
                    <path d="M494.2,1136.8 L474.1,1204.1 L350.1,1094.1 L494.2,1136.8 L494.2,1136.8 Z" id="Shape" fill="#F7F7F7"></path>
                    <path d="M494.2,1136.8 L613.7,1126 L474.1,1204.1 L494.2,1136.8 L494.2,1136.8 Z" id="Shape" fill="#EAEAEA"></path>
                    <path d="M451.3,936.7 L415.8,821.7 L570.9,917.3 L451.3,936.7 L451.3,936.7 Z" id="Shape" fill="#F4F4F4"></path>
                    <path d="M451.3,936.7 L295.5,843.7 L415.8,821.7 L451.3,936.7 L451.3,936.7 Z" id="Shape" fill="#E8E8E8"></path>
                    <path d="M451.3,936.7 L366.4,1059.6 L295.5,843.7 L451.3,936.7 L451.3,936.7 Z" id="Shape" fill="#F9F9F9"></path>
                    <path d="M451.3,936.7 L530.4,1024.4 L366.4,1059.6 L451.3,936.7 L451.3,936.7 Z" id="Shape" fill="#E8E8E8"></path>
                    <path d="M451.3,936.7 L570.9,917.3 L530.4,1024.4 L451.3,936.7 L451.3,936.7 Z" id="Shape" fill="#EFEFEF"></path>
                    <path d="M225.1,1433.5 L262.7,1282.7 L394.9,1403.8 L225.1,1433.5 L225.1,1433.5 Z" id="Shape" fill="#EFEFEF"></path>
                    <path d="M225.1,1433.5 L156.7,1299.5 L262.7,1282.6 L225.1,1433.5 L225.1,1433.5 Z" id="Shape" fill="#F4F4F4"></path>
                    <path d="M225.1,1433.5 L112.7,1418.9 L156.7,1299.6 L225.1,1433.5 Z" id="Shape" fill="#E8E8E8"></path>
                    <path d="M225.1,1433.5 L323.7,1455.4 L259.9,1477.3 L225.1,1433.5 Z" id="Shape" fill="#F4F4F4"></path>
                    <path d="M225.1,1433.5 L394.8,1403.8 L323.7,1455.4 L225.1,1433.5 L225.1,1433.5 Z" id="Shape" fill="#E8E8E8"></path>
                    <path d="M223.4,1204.2 L181.4,1073.6 L266.8,1163.8 L223.4,1204.2 L223.4,1204.2 Z" id="Shape" fill="#EFEFEF"></path>
                    <path d="M223.4,1204.2 L262.7,1282.7 L156.7,1299.6 L223.4,1204.2 Z" id="Shape" fill="#F4F4F4"></path>
                    <path d="M223.4,1204.2 L266.8,1163.9 L262.7,1282.8 L223.4,1204.2 L223.4,1204.2 Z" id="Shape" fill="#EDEDED"></path>
                    <path d="M225.1,1010.9 L295.5,843.7 L366.4,1059.6 L225.1,1010.9 L225.1,1010.9 Z" id="Shape" fill="#EFEFEF"></path>
                    <path d="M225.1,1010.9 L160.7,894.2 L295.5,843.7 L225.1,1010.9 L225.1,1010.9 Z" id="Shape" fill="#EFEFEF"></path>
                    <path d="M225.1,1010.9 L181.3,1073.6 L160.7,894.2 L225.1,1010.9 Z" id="Shape" fill="#E8E8E8"></path>
                    <path d="M225.1,1010.9 L266.7,1163.8 L181.3,1073.6 L225.1,1010.9 Z" id="Shape" fill="#E8E8E8"></path>
                    <path d="M225.1,1010.9 L350.2,1094.1 L266.8,1163.7 L225.1,1010.9 L225.1,1010.9 Z" id="Shape" fill="#F4F4F4"></path>
                    <path d="M225.1,1010.9 L366.4,1059.5 L350.2,1094.1 L225.1,1010.9 L225.1,1010.9 Z" id="Shape" fill="#F4F4F4"></path>
                    <path d="M373.6,787.8 L415.7,821.6 L295.4,843.6 L373.6,787.8 L373.6,787.8 Z" id="Shape" fill="#F4F4F4"></path>
                    <path d="M830.8,884.2 L680.4,862.5 L798.1,827.4 L830.8,884.2 Z" id="Shape" fill="#FFFFFF"></path>
                    <path d="M798.1,827.4 L949.3,923.7 L830.8,884.2 L798.1,827.4 Z" id="Shape" fill="#F7F7F7"></path>
                    <path d="M1643,880.1 L1584.4,916.4 L1689.4,932.7 L1643,880.1 L1643,880.1 Z" id="Shape" fill="#F4F4F4"></path>
                    <path d="M930.1,703.3 L902.3,819.4 L798.1,827.4 L930.1,703.3 Z" id="Shape" fill="#EFEFEF"></path>
                    <path d="M930.1,703.3 L1005.3,789.7 L902.4,819.4 L930.1,703.3 L930.1,703.3 Z" id="Shape" fill="#F7F7F7"></path>
                    <path d="M970.5,928.8 L902.4,819.4 L1005.3,789.7 L970.5,928.8 L970.5,928.8 Z" id="Shape" fill="#EDEDED"></path>
                    <path d="M1218.8,787.8 L1118.9,854.5 L1005.2,789.6 L1218.8,787.8 L1218.8,787.8 Z" id="Shape" fill="#EAEAEA"></path>
                    <path d="M1387.2,799.6 L1484.3,711.2 L1544.2,763.5 L1387.2,799.6 Z" id="Shape" fill="#F4F4F4"></path>
                    <path d="M1484.3,711.2 L1535.7,576.6 L1544.1,763.6 L1484.3,711.2 L1484.3,711.2 Z" id="Shape" fill="#EFEFEF"></path>
                    <path d="M1365.1,1542.3 L1492.9,1433.5 L1535.8,1517.5 L1365.1,1542.3 L1365.1,1542.3 Z" id="Shape" fill="#F4F4F4"></path>
                    <path d="M156.7,770.9 L373.7,787.8 L295.5,843.7 L156.7,770.9 L156.7,770.9 Z" id="Shape" fill="#EFEFEF"></path>
                    <path d="M156.7,770.9 L295.5,843.7 L160.7,894.2 L156.7,770.9 L156.7,770.9 Z" id="Shape" fill="#E8E8E8"></path>
                    <path d="M1548.4,279.7 L1498.2,304.8 L1641.4,365.3 L1548.4,279.7 L1548.4,279.7 Z" id="Shape" fill="#EAEAEA"></path>
                    <path d="M1641.4,365.3 L1676,192.4 L1548.4,279.7 L1641.4,365.3 L1641.4,365.3 Z" id="Shape" fill="#EFEFEF"></path>
                    <path d="M1676,192.4 L1641.4,365.2 L1783.4,195.3 L1676,192.4 L1676,192.4 Z" id="Shape" fill="#F4F4F4"></path>
                    <path d="M2543.7,247.6 L2415.4,204.9 L2478.3,330.8 L2543.7,247.6 L2543.7,247.6 Z" id="Shape" fill="#F4F4F4"></path>
                    <path d="M181.3,1073.6 L223.3,1204.2 L108,1152.2 L181.3,1073.6 L181.3,1073.6 Z" id="Shape" fill="#E8E8E8"></path>
                    <path d="M3079.9,1380.2 L2949.7,1414.6 L2974.5,1273.5 L3079.9,1380.2 L3079.9,1380.2 Z" id="Shape" fill="#EBEBEB"></path>
                    <path d="M3079.9,1380.2 L3118,1549.1 L2949.8,1414.6 L3079.9,1380.2 L3079.9,1380.2 Z" id="Shape" fill="#EFEFEF"></path>
                    <path d="M2944.8,1549.2 L2949.8,1414.7 L3118,1549.2 L2944.8,1549.2 L2944.8,1549.2 Z" id="Shape" fill="#EFEFEF"></path>
                    <path d="M2944.8,1549.2 L2794.4,1492.4 L2949.8,1414.7 L2944.8,1549.2 L2944.8,1549.2 Z" id="Shape" fill="#E8E8E8"></path>
                    <path d="M2944.8,1549.2 L2784.3,1542.6 L2794.4,1492.3 L2944.8,1549.2 L2944.8,1549.2 Z" id="Shape" fill="#F7F7F7"></path>
                    <path d="M2839.1,1337.9 L2882.3,1227.4 L2974.5,1273.5 L2839.1,1337.9 L2839.1,1337.9 Z" id="Shape" fill="#EFEFEF"></path>
                    <path d="M2839.1,1337.9 L2657.3,1303.3 L2882.3,1227.4 L2839.1,1337.9 L2839.1,1337.9 Z" id="Shape" fill="#F4F4F4"></path>
                    <path d="M2839.1,1337.9 L2794.3,1492.4 L2657.3,1303.4 L2839.1,1337.9 L2839.1,1337.9 Z" id="Shape" fill="#FFFFFF"></path>
                    <path d="M2839.1,1337.9 L2949.7,1414.7 L2794.3,1492.4 L2839.1,1337.9 L2839.1,1337.9 Z" id="Shape" fill="#F4F4F4"></path>
                    <path d="M2839.1,1337.9 L2974.5,1273.6 L2949.7,1414.7 L2839.1,1337.9 L2839.1,1337.9 Z" id="Shape" fill="#F4F4F4"></path>
                    <path d="M2944.8,1126.6 L2969.8,982.1 L3077.6,1163.9 L2944.8,1126.6 L2944.8,1126.6 Z" id="Shape" fill="#EFEFEF"></path>
                    <path d="M2944.8,1126.6 L2839.3,1047.3 L2969.8,982.1 L2944.8,1126.6 L2944.8,1126.6 Z" id="Shape" fill="#F2F2F2"></path>
                    <path d="M2944.8,1126.6 L2882.3,1227.4 L2839.3,1047.3 L2944.8,1126.6 L2944.8,1126.6 Z" id="Shape" fill="#FFFFFF"></path>
                    <path d="M2944.8,1126.6 L2974.6,1273.5 L2882.4,1227.4 L2944.8,1126.6 L2944.8,1126.6 Z" id="Shape" fill="#EDEDED"></path>
                    <path d="M2944.8,1126.6 L3062.2,1226.9 L2974.6,1273.5 L2944.8,1126.6 L2944.8,1126.6 Z" id="Shape" fill="#E8E8E8"></path>
                    <path d="M2944.8,1126.6 L3077.5,1163.8 L3062.1,1226.9 L2944.8,1126.6 L2944.8,1126.6 Z" id="Shape" fill="#EFEFEF"></path>
                    <path d="M2860.6,921.5 L2801,1038.4 L2802.8,845.7 L2860.6,921.5 L2860.6,921.5 Z" id="Shape" fill="#F4F4F4"></path>
                    <path d="M2860.6,921.5 L2839.3,1047.3 L2801,1038.4 L2860.6,921.5 L2860.6,921.5 Z" id="Shape" fill="#F4F4F4"></path>
                    <path d="M2860.6,921.5 L2969.7,982 L2839.2,1047.2 L2860.6,921.5 L2860.6,921.5 Z" id="Shape" fill="#E8E8E8"></path>
                    <path d="M2860.6,921.5 L3056.1,932.2 L2969.8,982 L2860.6,921.5 L2860.6,921.5 Z" id="Shape" fill="#F4F4F4"></path>
                    <path d="M2633.6,1486.8 L2657.4,1303.3 L2794.4,1492.3 L2633.6,1486.8 L2633.6,1486.8 Z" id="Shape" fill="#EFEFEF"></path>
                    <path d="M2633.6,1486.8 L2629.8,1290.6 L2657.4,1303.3 L2633.6,1486.8 L2633.6,1486.8 Z" id="Shape" fill="#F2F2F2"></path>
                    <path d="M2633.6,1486.8 L2602.9,1299 L2629.8,1290.7 L2633.6,1486.8 L2633.6,1486.8 Z" id="Shape" fill="#E8E8E8"></path>
                    <path d="M2633.6,1486.8 L2521.6,1417.4 L2602.9,1299 L2633.6,1486.8 L2633.6,1486.8 Z" id="Shape" fill="#FFFFFF"></path>
                    <path d="M2633.6,1486.8 L2595.4,1549.2 L2521.6,1417.4 L2633.6,1486.8 L2633.6,1486.8 Z" id="Shape" fill="#F4F4F4"></path>
                    <path d="M2633.6,1486.8 L2775.9,1549.2 L2595.4,1549.2 L2633.6,1486.8 L2633.6,1486.8 Z" id="Shape" fill="#F4F4F4"></path>
                    <path d="M2633.6,1486.8 L2784.3,1542.6 L2775.9,1549.2 L2633.6,1486.8 L2633.6,1486.8 Z" id="Shape" fill="#EFEFEF"></path>
                    <path d="M2633.6,1486.8 L2794.3,1492.3 L2784.2,1542.6 L2633.6,1486.8 L2633.6,1486.8 Z" id="Shape" fill="#EFEFEF"></path>
                    <path d="M2781,1165.7 L2839.3,1047.3 L2882.3,1227.4 L2781,1165.7 L2781,1165.7 Z" id="Shape" fill="#F4F4F4"></path>
                    <path d="M2781,1165.7 L2801,1038.4 L2839.3,1047.3 L2781,1165.7 L2781,1165.7 Z" id="Shape" fill="#EFEFEF"></path>
                    <path d="M2781,1165.7 L2663.3,1068.4 L2801,1038.4 L2781,1165.7 L2781,1165.7 Z" id="Shape" fill="#F2F2F2"></path>
                    <path d="M2781,1165.7 L2629.8,1290.7 L2663.4,1068.5 L2781,1165.7 L2781,1165.7 Z" id="Shape" fill="#FFFFFF"></path>
                    <path d="M2781,1165.7 L2657.3,1303.3 L2629.7,1290.6 L2781,1165.7 L2781,1165.7 Z" id="Shape" fill="#F7F7F7"></path>
                    <path d="M2781,1165.7 L2882.3,1227.4 L2657.3,1303.3 L2781,1165.7 L2781,1165.7 Z" id="Shape" fill="#EFEFEF"></path>
                    <path d="M2729.9,931 L2802.9,845.7 L2801.1,1038.4 L2729.9,931 L2729.9,931 Z" id="Shape" fill="#EFEFEF"></path>
                    <path d="M2729.9,931 L2570.9,970.2 L2661.3,878.7 L2729.9,931 L2729.9,931 Z" id="Shape" fill="#EAEAEA"></path>
                    <path d="M2729.9,931 L2663.4,1068.4 L2570.9,970.2 L2729.9,931 L2729.9,931 Z" id="Shape" fill="#F9F9F9"></path>
                    <path d="M2729.9,931 L2801.1,1038.4 L2663.4,1068.4 L2729.9,931 L2729.9,931 Z" id="Shape" fill="#EDEDED"></path>
                    <path d="M2522.2,1549.2 L2521.6,1417.4 L2595.4,1549.2 L2522.2,1549.2 L2522.2,1549.2 Z" id="Shape" fill="#EFEFEF"></path>
                    <path d="M2522.2,1549.2 L2409.5,1473.5 L2521.6,1417.4 L2522.2,1549.2 L2522.2,1549.2 Z" id="Shape" fill="#E8E8E8"></path>
                    <path d="M2522.2,1549.2 L2405.3,1478 L2409.4,1473.6 L2522.2,1549.2 L2522.2,1549.2 Z M2522.2,1549.2 L2430.5,1549.2 L2405.3,1478 L2522.2,1549.2 L2522.2,1549.2 Z" id="Shape" fill="#F4F4F4"></path>
                    <path d="M2416.6,1337.9 L2455.7,1225.4 L2602.9,1299 L2416.6,1337.9 L2416.6,1337.9 Z" id="Shape" fill="#EFEFEF"></path>
                    <path d="M2416.6,1337.9 L2342.9,1261.6 L2455.6,1225.4 L2416.6,1337.9 L2416.6,1337.9 Z" id="Shape" fill="#F4F4F4"></path>
                    <path d="M2416.6,1337.9 L2409.5,1473.5 L2342.9,1261.6 L2416.6,1337.9 L2416.6,1337.9 Z" id="Shape" fill="#F4F4F4"></path>
                    <path d="M2416.6,1337.9 L2521.6,1417.4 L2409.5,1473.5 L2416.6,1337.9 L2416.6,1337.9 Z" id="Shape" fill="#E8E8E8"></path>
                    <path d="M2416.6,1337.9 L2602.9,1299 L2521.6,1417.4 L2416.6,1337.9 L2416.6,1337.9 Z" id="Shape" fill="#F4F4F4"></path>
                    <path d="M2522.2,1126.6 L2570.9,970.2 L2663.4,1068.4 L2522.2,1126.6 L2522.2,1126.6 Z" id="Shape" fill="#EFEFEF"></path>
                    <path d="M2522.2,1126.6 L2422.4,1044.4 L2570.9,970.2 L2522.2,1126.6 L2522.2,1126.6 Z" id="Shape" fill="#EFEFEF"></path>
                    <path d="M2522.2,1126.6 L2455.6,1225.4 L2422.4,1044.5 L2522.2,1126.6 L2522.2,1126.6 Z" id="Shape" fill="#EAEAEA"></path>
                    <path d="M2522.2,1126.6 L2602.9,1299 L2455.7,1225.4 L2522.2,1126.6 L2522.2,1126.6 Z" id="Shape" fill="#EDEDED"></path>
                    <path d="M2522.2,1126.6 L2629.8,1290.7 L2602.9,1299 L2522.2,1126.6 L2522.2,1126.6 Z" id="Shape" fill="#EFEFEF"></path>
                    <path d="M2522.2,1126.6 L2663.4,1068.4 L2629.8,1290.6 L2522.2,1126.6 L2522.2,1126.6 Z" id="Shape" fill="#F4F4F4"></path>
                    <path d="M2472.3,945.8 L2401.3,1039.3 L2361.7,889.5 L2472.3,945.8 L2472.3,945.8 Z" id="Shape" fill="#F7F7F7"></path>
                    <path d="M2472.3,945.8 L2422.4,1044.4 L2401.3,1039.3 L2472.3,945.8 L2472.3,945.8 Z" id="Shape" fill="#F4F4F4"></path>
                    <path d="M2472.3,945.8 L2570.9,970.2 L2422.4,1044.4 L2472.3,945.8 L2472.3,945.8 Z" id="Shape" fill="#F7F7F7"></path>
                    <path d="M2472.3,945.8 L2661.3,878.7 L2570.9,970.2 L2472.3,945.8 L2472.3,945.8 Z" id="Shape" fill="#EFEFEF"></path>
                    <path d="M2359.3,1606.8 L2405.4,1477.9 L2430.6,1549.1 L2359.3,1606.8 L2359.3,1606.8 Z" id="Shape" fill="#EFEFEF"></path>
                    <path d="M2359.3,1606.8 L2246.8,1499.8 L2405.3,1477.9 L2359.3,1606.8 L2359.3,1606.8 Z" id="Shape" fill="#F4F4F4"></path>
                    <path d="M2326.1,1366.3 L2342.9,1261.6 L2409.5,1473.5 L2326.1,1366.3 L2326.1,1366.3 Z" id="Shape" fill="#EFEFEF"></path>
                    <path d="M2326.1,1366.3 L2217.3,1242.3 L2342.9,1261.6 L2326.1,1366.3 L2326.1,1366.3 Z" id="Shape" fill="#F2F2F2"></path>
                    <path d="M2326.1,1366.3 L2165.2,1291.4 L2217.2,1242.2 L2326.1,1366.3 L2326.1,1366.3 Z" id="Shape" fill="#EBEBEB"></path>
                    <path d="M2326.1,1366.3 L2156.9,1388.5 L2165.2,1291.5 L2326.1,1366.3 L2326.1,1366.3 Z" id="Shape" fill="#F9F9F9"></path>
                    <path d="M2326.1,1366.3 L2246.8,1499.8 L2156.9,1388.5 L2326.1,1366.3 L2326.1,1366.3 Z" id="Shape" fill="#F1F1F1"></path>
                    <path d="M2326.1,1366.3 L2405.3,1477.9 L2246.8,1499.8 L2326.1,1366.3 L2326.1,1366.3 Z" id="Shape" fill="#E8E8E8"></path>
                    <path d="M2326.1,1366.3 L2409.5,1473.5 L2405.4,1477.9 L2326.1,1366.3 L2326.1,1366.3 Z" id="Shape" fill="#EFEFEF"></path>
                    <path d="M2358.3,1156.7 L2422.4,1044.4 L2455.6,1225.3 L2358.3,1156.7 L2358.3,1156.7 Z" id="Shape" fill="#F4F4F4"></path>
                    <path d="M2358.3,1156.7 L2401.3,1039.3 L2422.4,1044.4 L2358.3,1156.7 L2358.3,1156.7 Z" id="Shape" fill="#EFEFEF"></path>
                    <path d="M2358.3,1156.7 L2231.3,1121.3 L2401.2,1039.4 L2358.3,1156.7 L2358.3,1156.7 Z" id="Shape" fill="#F4F4F4"></path>
                    <path d="M2358.3,1156.7 L2217.2,1242.3 L2231.3,1121.3 L2358.3,1156.7 L2358.3,1156.7 Z" id="Shape" fill="#FFFFFF"></path>
                    <path d="M2358.3,1156.7 L2342.9,1261.6 L2217.3,1242.3 L2358.3,1156.7 L2358.3,1156.7 Z" id="Shape" fill="#F2F2F2"></path>
                    <path d="M2358.3,1156.7 L2455.6,1225.4 L2342.9,1261.6 L2358.3,1156.7 L2358.3,1156.7 Z" id="Shape" fill="#E8E8E8"></path>
                    <path d="M2282.7,999.9 L2361.7,889.6 L2401.3,1039.4 L2282.7,999.9 L2282.7,999.9 Z" id="Shape" fill="#EFEFEF"></path>
                    <path d="M2282.7,999.9 L2132.3,978.2 L2165.2,896.4 L2282.7,999.9 L2282.7,999.9 Z" id="Shape" fill="#EAEAEA"></path>
                    <path d="M2282.7,999.9 L2231.3,1121.3 L2132.3,978.2 L2282.7,999.9 L2282.7,999.9 Z" id="Shape" fill="#F7F7F7"></path>
                    <path d="M2282.7,999.9 L2401.3,1039.4 L2231.4,1121.3 L2282.7,999.9 L2282.7,999.9 Z" id="Shape" fill="#F4F4F4"></path>
                    <path d="M2099.6,1549.2 L2156.9,1388.5 L2246.8,1499.8 L2099.6,1549.2 L2099.6,1549.2 Z" id="Shape" fill="#EFEFEF"></path>
                    <path d="M2099.6,1549.2 L2000.9,1466.5 L2156.9,1388.5 L2099.6,1549.2 L2099.6,1549.2 Z" id="Shape" fill="#EFEFEF"></path>
                    <path d="M2099.6,1549.2 L2039.7,1549.2 L2000.9,1466.5 L2099.6,1549.2 L2099.6,1549.2 Z" id="Shape" fill="#EAEAEA"></path>
                    <path d="M1994,1337.9 L2065.7,1241.7 L2165.3,1291.5 L1994,1337.9 L1994,1337.9 Z" id="Shape" fill="#EFEFEF"></path>
                    <path d="M1994,1337.9 L1926.1,1319.8 L2065.7,1241.7 L1994,1337.9 L1994,1337.9 Z" id="Shape" fill="#EFEFEF"></path>
                    <path d="M1994,1337.9 L1937.2,1468.3 L1926.1,1319.8 L1994,1337.9 L1994,1337.9 Z" id="Shape" fill="#EDEDED"></path>
                    <path d="M1994,1337.9 L2000.9,1466.5 L1937.1,1468.4 L1994,1337.9 L1994,1337.9 Z" id="Shape" fill="#F4F4F4"></path>
                    <path d="M1994,1337.9 L2156.9,1388.5 L2000.9,1466.5 L1994,1337.9 L1994,1337.9 Z" id="Shape" fill="#F7F7F7"></path>
                    <path d="M1994,1337.9 L2165.3,1291.5 L2157,1388.5 L1994,1337.9 L1994,1337.9 Z" id="Shape" fill="#EFEFEF"></path>
                    <path d="M2099.6,1126.6 L2132.3,978.2 L2231.3,1121.3 L2099.6,1126.6 L2099.6,1126.6 Z" id="Shape" fill="#FFFFFF"></path>
                    <path d="M2099.6,1126.6 L2022.8,1033 L2132.3,978.2 L2099.6,1126.6 L2099.6,1126.6 Z" id="Shape" fill="#E8E8E8"></path>
                    <path d="M2099.6,1126.6 L1982.3,1140 L2022.8,1032.9 L2099.6,1126.6 L2099.6,1126.6 Z" id="Shape" fill="#F4F4F4"></path>
                    <path d="M2099.6,1126.6 L2065.6,1241.7 L1982.3,1140 L2099.6,1126.6 L2099.6,1126.6 Z" id="Shape" fill="#F4F4F4"></path>
                    <path d="M2099.6,1126.6 L2165.2,1291.5 L2065.6,1241.7 L2099.6,1126.6 L2099.6,1126.6 Z" id="Shape" fill="#EAEAEA"></path>
                    <path d="M2099.6,1126.6 L2217.2,1242.3 L2165.2,1291.5 L2099.6,1126.6 L2099.6,1126.6 Z" id="Shape" fill="#EFEFEF"></path>
                    <path d="M2099.6,1126.6 L2231.3,1121.3 L2217.2,1242.3 L2099.6,1126.6 L2099.6,1126.6 Z" id="Shape" fill="#F4F4F4"></path>
                    <path d="M1976.7,898.4 L1888.9,945.8 L1816.1,880.1 L1976.7,898.4 Z" id="Shape" fill="#EFEFEF"></path>
                    <path d="M1976.7,898.4 L2022.8,1033 L1888.9,945.8 L1976.7,898.4 Z" id="Shape" fill="#F4F4F4"></path>
                    <path d="M1985,905.2 L2132.3,978.2 L2022.8,1033 L1985,905.2 L1985,905.2 Z" id="Shape" fill="#F4F4F4"></path>
                    <path d="M1985,905.2 L2165.2,896.4 L2132.3,978.2 L1985,905.2 L1985,905.2 Z" id="Shape" fill="#E8E8E8"></path>
                    <path d="M2001.5,1595.2 L2000.9,1466.4 L2039.7,1549.1 L2001.5,1595.2 L2001.5,1595.2 Z" id="Shape" fill="#F4F4F4"></path>
                    <path d="M2001.5,1595.2 L1937.2,1468.3 L2001,1466.4 L2001.5,1595.2 L2001.5,1595.2 Z" id="Shape" fill="#E8E8E8"></path>
                    <path d="M2001.5,1595.2 L1846.8,1519.4 L1937.2,1468.3 L2001.5,1595.2 L2001.5,1595.2 Z" id="Shape" fill="#EDEDED"></path>
                    <path d="M1861.6,1347.8 L1926.1,1319.8 L1937.2,1468.3 L1861.6,1347.8 L1861.6,1347.8 Z" id="Shape" fill="#EFEFEF"></path>
                    <path d="M1861.6,1347.8 L1802.1,1209.9 L1926.1,1319.9 L1861.6,1347.8 L1861.6,1347.8 Z" id="Shape" fill="#EFEFEF"></path>
                    <path d="M1861.6,1347.8 L1729.5,1273.1 L1802.1,1209.9 L1861.6,1347.8 L1861.6,1347.8 Z" id="Shape" fill="#EDEDED"></path>
                    <path d="M1861.6,1347.8 L1736.7,1371.2 L1729.5,1273.1 L1861.6,1347.8 Z" id="Shape" fill="#F7F7F7"></path>
                    <path d="M1861.6,1347.8 L1846.8,1519.4 L1736.7,1371.2 L1861.6,1347.8 Z" id="Shape" fill="#F7F7F7"></path>
                    <path d="M1861.6,1347.8 L1937.2,1468.3 L1846.8,1519.4 L1861.6,1347.8 L1861.6,1347.8 Z" id="Shape" fill="#E8E8E8"></path>
                    <path d="M1946.2,1252.5 L1982.3,1140.1 L2065.7,1241.7 L1946.2,1252.5 L1946.2,1252.5 Z" id="Shape" fill="#F4F4F4"></path>
                    <path d="M1946.2,1252.5 L1818.3,1175.3 L1982.3,1140.1 L1946.2,1252.5 L1946.2,1252.5 Z" id="Shape" fill="#E8E8E8"></path>
                    <path d="M1946.2,1252.5 L1802.1,1209.9 L1818.3,1175.3 L1946.2,1252.5 L1946.2,1252.5 Z" id="Shape" fill="#EFEFEF"></path>
                    <path d="M1946.2,1252.5 L1926.1,1319.8 L1802.1,1209.8 L1946.2,1252.5 L1946.2,1252.5 Z" id="Shape" fill="#F7F7F7"></path>
                    <path d="M1946.2,1252.5 L2065.7,1241.7 L1926.1,1319.8 L1946.2,1252.5 L1946.2,1252.5 Z" id="Shape" fill="#EAEAEA"></path>
                    <path d="M1903.2,1052.3 L1888.9,945.8 L2022.8,1032.9 L1903.2,1052.3 L1903.2,1052.3 Z" id="Shape" fill="#E8E8E8"></path>
                    <path d="M1903.2,1052.3 L1779,1000.3 L1888.9,945.8 L1903.2,1052.3 L1903.2,1052.3 Z" id="Shape" fill="#F4F4F4"></path>
                    <path d="M1903.2,1052.3 L1818.3,1175.2 L1779,1000.3 L1903.2,1052.3 L1903.2,1052.3 Z" id="Shape" fill="#F9F9F9"></path>
                    <path d="M1903.2,1052.3 L1982.3,1140 L1818.3,1175.2 L1903.2,1052.3 L1903.2,1052.3 Z" id="Shape" fill="#FFFFFF"></path>
                    <path d="M1903.2,1052.3 L2022.8,1032.9 L1982.3,1140 L1903.2,1052.3 L1903.2,1052.3 Z" id="Shape" fill="#EFEFEF"></path>
                    <path d="M1682,1499.8 L1736.7,1371.2 L1846.8,1519.5 L1682,1499.8 L1682,1499.8 Z" id="Shape" fill="#EFEFEF"></path>
                    <path d="M1682,1499.8 L1664.4,1398.3 L1736.7,1371.1 L1682,1499.8 L1682,1499.8 Z" id="Shape" fill="#F4F4F4"></path>
                    <path d="M1682,1499.8 L1492.9,1433.5 L1664.4,1398.3 L1682,1499.8 Z" id="Shape" fill="#E8E8E8"></path>
                    <path d="M1698.8,1027.3 L1779,1000.4 L1818.3,1175.3 L1698.8,1027.3 L1698.8,1027.3 Z" id="Shape" fill="#EFEFEF"></path>
                    <path d="M1698.8,1027.3 L1689.4,931.6 L1779,1000.3 L1698.8,1027.3 L1698.8,1027.3 Z" id="Shape" fill="#EFEFEF"></path>
                    <path d="M1711.3,1134.9 L1802.1,1209.8 L1729.5,1273 L1711.3,1134.9 L1711.3,1134.9 Z" id="Shape" fill="#EDEDED"></path>
                    <path d="M1711.3,1134.9 L1818.2,1175.2 L1802,1209.8 L1711.3,1134.9 L1711.3,1134.9 Z" id="Shape" fill="#F4F4F4"></path>
                    <path d="M1689.3,931.6 L1888.8,945.8 L1779,1000.3 L1689.3,931.6 L1689.3,931.6 Z" id="Shape" fill="#EDEDED"></path>
                    <path d="M1888.9,945.8 L1689.3,931.6 L1816.1,880.1 L1888.9,945.8 Z" id="Shape" fill="#FFFFFF"></path>
                    <path d="M1818.3,1175.2 L1711.4,1134.9 L1698.8,1027.3 L1818.3,1175.2 L1818.3,1175.2 Z" id="Shape" fill="#E8E8E8"></path>
                    <path d="M2022.8,1033 L1976.7,898.5 L1985.1,905.3 L2022.8,1033 L2022.8,1033 Z" id="Shape" fill="#EFEFEF"></path>
                    <path d="M1492.9,1433.5 L1682.1,1499.8 L1535.8,1517.5 L1492.9,1433.5 L1492.9,1433.5 Z" id="Shape" fill="#F7F7F7"></path>
                    <path d="M783.9,1433.5 L856,1436.5 L884.2,1495.2 L783.9,1433.5 L783.9,1433.5 Z" id="Shape" fill="#EFEFEF"></path>
                    <path d="M2914.2,850.4 L2801.1,845.7 L2860.7,921.6 L2914.2,850.4 L2914.2,850.4 Z" id="Shape" fill="#E8E8E8"></path>
                    <path d="M3056.1,932.2 L2914.2,850.4 L2860.7,921.5 L3056.1,932.2 L3056.1,932.2 Z" id="Shape" fill="#EFEFEF"></path>
                    <path d="M1492.9,1433.5 L1365.1,1542.3 L1332.4,1426.9 L1492.9,1433.5 L1492.9,1433.5 Z" id="Shape" fill="#EBEBEB"></path>
                    <path d="M706.5,1465.3 L688.3,1392.1 L783.9,1433.5 L706.5,1465.3 L706.5,1465.3 Z" id="Shape" fill="#F2F2F2"></path>
                    <path d="M706.5,1465.3 L587.8,1433.5 L688.3,1392.1 L706.5,1465.3 L706.5,1465.3 Z" id="Shape" fill="#F4F4F4"></path>
                    <path d="M1332.3,1427 L1365,1542.4 L1273.7,1437.5 L1332.3,1427 L1332.3,1427 Z" id="Shape" fill="#EFEFEF"></path>
                    <path d="M1143.4,1433.5 L1273.7,1437.4 L1197,1553.3 L1143.4,1433.5 L1143.4,1433.5 Z" id="Shape" fill="#EBEBEB"></path>
                    <path d="M1273.7,1437.4 L1365,1542.3 L1197,1553.3 L1273.7,1437.4 L1273.7,1437.4 Z" id="Shape" fill="#F4F4F4"></path>
                    <path d="M1063.5,1630.2 L1143.4,1433.5 L1197,1553.3 L1063.5,1630.2 L1063.5,1630.2 Z" id="Shape" fill="#F2F2F2"></path>
                    <g transform="translate(112.000000, 1418.000000)" id="Shape">
                        <path d="M901.6,20.4 L884.9,113.4 L1031.4,15.5 L901.6,20.4 L901.6,20.4 Z" fill="#E8E8E8"></path>
                        <path d="M901.6,20.4 L772.2,77.2 L884.9,113.4 L901.6,20.4 L901.6,20.4 Z" fill="#F4F4F4"></path>
                        <path d="M951.5,212.2 L1031.4,15.5 L884.9,113.4 L951.5,212.2 L951.5,212.2 Z" fill="#EDEDED"></path>
                        <path d="M671.9,15.6 L646.5,96.4 L772.1,77.1 L671.9,15.6 L671.9,15.6 Z" fill="#F2F2F2"></path>
                        <path d="M671.9,15.6 L594.5,47.3 L646.5,96.5 L671.9,15.6 L671.9,15.6 Z" fill="#EBEBEB"></path>
                        <path d="M477,15.5 L494.9,97.1 L594.5,47.3 L477,15.5 L477,15.5 Z" fill="#EFEFEF"></path>
                        <path d="M477,15.5 L352,44.2 L494.9,97.1 L477,15.5 L477,15.5 Z" fill="#EFEFEF"></path>
                        <path d="M528.9,212.2 L594.5,47.3 L494.9,97.1 L528.9,212.2 L528.9,212.2 Z" fill="#EAEAEA"></path>
                        <path d="M528.9,212.2 L646.5,96.5 L594.5,47.3 L528.9,212.2 L528.9,212.2 Z" fill="#EFEFEF"></path>
                        <path d="M211.7,37.4 L231.4,128.9 L352,44.2 L211.7,37.4 L211.7,37.4 Z" fill="#EFEFEF"></path>
                        <path d="M211.7,37.4 L147.9,59.3 L231.3,128.9 L211.7,37.4 L211.7,37.4 Z" fill="#EDEDED"></path>
                        <path d="M375.4,86.3 L352,44.2 L231.4,128.9 L375.4,86.3 L375.4,86.3 Z" fill="#F7F7F7"></path>
                        <path d="M375.4,86.3 L494.9,97.1 L352,44.2 L375.4,86.3 L375.4,86.3 Z" fill="#EAEAEA"></path>
                        <path d="M0.7,0.9 L93.7,86.5 L148,59.4 L0.7,0.9 L0.7,0.9 Z" fill="#EFEFEF"></path>
                        <path d="M74.3,247.3 L93.6,86.4 L106.3,212.1 L74.3,247.3 L74.3,247.3 Z M93.6,86.5 L147.9,59.4 L106.3,212.3 L93.6,86.5 L93.6,86.5 Z" fill="#E8E8E8"></path>
                        <path d="M106.3,212.2 L231.4,129 L148,59.4 L106.3,212.2 L106.3,212.2 Z" fill="#F4F4F4"></path>
                    </g>
                    <path d="M323.7,1455.4 L394.8,1403.8 L464,1462.2 L323.7,1455.4 Z" id="Shape" fill="#EDEDED"></path>
                    <path d="M225.1,1433.5 L259.9,1477.3 L112.6,1418.9 L225.1,1433.5 L225.1,1433.5 Z" id="Shape" fill="#EDEDED"></path>
                </g>
            </g>
        </g>
        <g id="Artboard-1" sketch:type="MSArtboardGroup"></g>
    </g>
</svg>